<?xml version="1.0" standalone="no"?>
<!DOCTYPE svg PUBLIC "-//W3C//DTD SVG 20010904//EN"
 "http://www.w3.org/TR/2001/REC-SVG-20010904/DTD/svg10.dtd">
<svg version="1.0" xmlns="http://www.w3.org/2000/svg"
 width="1024.000000pt" height="1024.000000pt" viewBox="0 0 1024.000000 1024.000000"
 preserveAspectRatio="xMidYMid meet">
<metadata>
Created by potrace 1.14, written by Peter Selinger 2001-2017
</metadata>
<g transform="translate(0.000000,1024.000000) scale(0.100000,-0.100000)"
fill="#000000" stroke="none">
<path d="M4670 9705 c-666 -68 -1284 -267 -1860 -598 -323 -185 -666 -452
-957 -744 -646 -648 -1092 -1527 -1247 -2458 -53 -319 -61 -415 -60 -805 0
-324 2 -384 23 -535 101 -749 346 -1410 742 -2001 353 -528 837 -995 1394
-1344 181 -113 588 -314 788 -388 843 -313 1769 -373 2652 -170 663 151 1244
431 1779 856 453 360 848 815 1126 1297 342 592 537 1216 601 1920 16 167 15
664 0 820 -109 1099 -550 2060 -1284 2804 -571 578 -1216 964 -1982 1186 -251
72 -474 117 -755 151 -187 23 -774 28 -960 9z m775 -215 c679 -58 1327 -259
1854 -574 628 -376 1088 -822 1478 -1431 234 -367 428 -825 537 -1272 59 -242
102 -507 109 -678 2 -55 2 -74 0 -42 -2 34 -8 55 -14 52 -6 -4 -7 10 -4 37 4
35 3 38 -5 20 -6 -14 -15 -20 -21 -16 -7 4 -9 3 -6 -2 3 -6 2 -16 -4 -24 -6
-11 -9 -9 -9 11 0 16 7 29 16 33 11 4 14 12 9 24 -4 9 -13 40 -21 67 l-13 50
4 -70 c3 -48 -3 -23 -19 80 -73 475 -202 890 -411 1320 -79 162 -220 403 -317
543 -179 257 -517 626 -754 823 -651 539 -1393 854 -2279 966 -201 26 -763 26
-955 0 -885 -117 -1598 -423 -2250 -966 -447 -372 -821 -841 -1073 -1347 -119
-237 -227 -513 -301 -770 -19 -66 -35 -112 -35 -104 -1 8 3 30 8 47 6 22 6 40
-2 58 -14 30 -27 33 -20 5 3 -11 1 -20 -5 -20 -6 0 -12 -6 -15 -12 -2 -7 -2 1
0 17 8 56 105 350 170 515 194 490 522 990 893 1360 627 627 1344 1026 2174
1210 162 36 437 79 571 89 150 12 574 12 710 1z m45 -135 c258 -30 601 -96
802 -154 592 -173 1059 -425 1543 -830 591 -495 1021 -1149 1284 -1950 23 -69
41 -132 40 -140 -1 -18 -4 -8 -48 130 -34 111 -136 378 -182 477 -52 114 -170
344 -209 407 -132 216 -190 303 -230 342 -60 59 -166 122 -265 155 -44 15 -70
28 -57 28 38 0 82 52 82 95 0 34 -11 48 -162 197 -179 177 -271 258 -294 258
-22 0 -4 -27 55 -83 46 -44 67 -87 41 -87 -6 0 -38 9 -71 20 -78 27 -206 45
-253 36 -97 -18 -100 -109 -5 -145 20 -7 28 -19 33 -45 7 -34 58 -106 76 -106
5 0 10 10 12 22 2 12 9 23 16 26 10 3 13 -8 11 -44 -1 -28 4 -60 12 -75 15
-27 161 -169 174 -169 4 0 5 13 3 30 l-5 30 54 -30 c39 -23 65 -30 104 -30 59
0 189 -53 253 -102 32 -26 36 -27 27 -9 -14 26 -83 78 -128 97 -32 14 -48 32
-18 20 29 -11 15 22 -15 34 -17 7 -28 15 -25 18 8 8 243 -116 297 -156 54 -41
114 -122 146 -199 35 -82 28 -123 -20 -123 l-31 0 7 48 c12 94 -47 210 -118
228 -48 12 -51 -10 -9 -52 71 -70 78 -88 74 -178 -8 -165 -6 -182 23 -226 15
-23 47 -56 72 -73 l46 -32 -46 -7 c-53 -7 -71 -17 -59 -29 6 -6 39 -5 84 2
123 18 198 -15 232 -102 l17 -43 -28 26 c-49 46 -71 52 -192 52 -103 1 -118 3
-147 24 -83 59 -100 134 -58 257 43 125 35 188 -30 231 -36 24 -52 7 -22 -25
55 -58 57 -78 21 -187 -31 -95 -29 -175 6 -244 31 -61 124 -156 188 -192 46
-27 52 -33 52 -63 0 -21 -9 -45 -25 -63 -31 -37 -32 -30 59 -302 40 -119 76
-248 92 -330 14 -74 36 -171 49 -215 13 -44 27 -100 31 -123 8 -49 30 -65 50
-37 10 13 17 16 25 8 7 -7 5 -29 -6 -73 -14 -55 -18 -97 -13 -151 1 -8 -9 -29
-21 -45 -12 -17 -26 -53 -30 -80 l-9 -49 -1 65 c-5 254 -61 603 -142 890 -79
278 -218 608 -351 827 -27 46 -46 87 -43 93 3 6 17 7 31 4 31 -8 30 0 -6 78
-26 56 -36 67 -70 81 -22 8 -42 12 -44 8 -3 -4 13 -30 34 -58 35 -46 41 -63
19 -63 -4 0 -35 42 -70 93 -272 400 -570 704 -957 976 -255 179 -530 320 -860
441 -156 57 -174 66 -193 97 -26 41 -22 47 15 28 26 -14 30 -14 43 2 13 17 14
16 10 -5 -4 -17 1 -26 21 -36 46 -23 184 -63 245 -71 61 -7 67 -11 98 -64 11
-18 30 -36 42 -39 12 -3 54 -22 92 -42 285 -151 336 -181 436 -257 42 -32 97
-61 150 -80 132 -48 129 -47 129 -24 0 34 48 79 108 101 46 18 69 21 122 16
59 -6 63 -5 46 8 -10 9 -42 23 -70 32 -66 21 -72 28 -58 59 14 30 37 32 54 5
7 -11 16 -20 21 -20 18 0 -30 58 -96 119 -172 154 -581 390 -887 510 -164 64
-385 140 -510 175 -76 21 -530 111 -670 133 -142 22 -600 25 -750 5 -195 -26
-538 -84 -645 -108 -481 -112 -861 -268 -1250 -513 -147 -92 -290 -195 -309
-223 -19 -27 -142 -125 -186 -148 -35 -18 -137 -111 -320 -290 -95 -93 -130
-135 -130 -156 0 -17 51 -65 84 -79 l28 -12 -48 -12 c-27 -7 -87 -31 -134 -53
-107 -52 -183 -127 -267 -263 -34 -55 -82 -131 -107 -170 -47 -71 -184 -337
-245 -475 -43 -96 -133 -344 -176 -485 -19 -60 -34 -103 -35 -95 0 20 66 230
123 390 52 148 182 430 263 573 76 133 254 400 349 522 247 316 550 609 855
826 542 388 1063 609 1720 733 124 23 328 51 440 59 144 11 567 6 690 -8z
m-206 -84 c48 -6 105 -19 125 -30 20 -10 55 -24 78 -30 43 -12 107 -66 97 -82
-3 -5 -26 -9 -52 -9 -71 -1 -292 -44 -280 -55 2 -2 53 5 113 15 95 17 322 27
288 13 -14 -5 -3 -31 31 -70 10 -12 15 -26 12 -31 -6 -9 89 -170 141 -238 l23
-31 -77 -13 c-180 -28 -472 -131 -558 -195 -16 -12 -52 -25 -80 -29 -27 -4
-60 -14 -72 -22 -12 -8 -47 -56 -78 -108 -30 -52 -79 -125 -108 -162 -29 -38
-70 -97 -90 -130 -36 -60 -85 -116 -59 -68 6 12 9 24 6 26 -3 3 8 27 24 54 15
27 31 58 35 69 7 20 7 20 -8 0 -9 -11 -32 -48 -53 -82 -20 -35 -40 -63 -43
-63 -4 0 -6 27 -5 60 2 50 1 56 -10 42 -12 -15 -12 -15 -7 6 3 12 10 22 15 22
5 0 7 4 3 9 -8 14 121 310 175 401 26 44 67 103 90 132 l42 53 -58 -60 c-32
-33 -62 -59 -66 -57 -4 1 -8 -5 -8 -14 0 -9 -8 -28 -19 -42 -10 -15 -28 -47
-41 -72 -12 -25 -37 -59 -54 -76 -28 -25 -37 -29 -59 -21 -17 5 -24 13 -20 20
3 7 3 9 -1 5 -5 -4 -37 9 -72 29 -42 23 -73 34 -89 31 -13 -3 -22 -2 -20 2 3
4 -4 10 -15 13 -11 3 -20 1 -20 -4 0 -5 -9 -9 -20 -9 -11 0 -20 7 -20 16 0 8
4 13 9 9 5 -3 12 -1 16 5 3 5 1 10 -5 10 -6 0 -8 5 -5 10 4 6 10 8 14 6 4 -3
13 0 21 5 13 9 13 10 0 8 -8 -1 -27 -1 -42 0 -21 1 -25 5 -21 21 3 12 0 20 -6
20 -7 0 -24 11 -39 25 -15 14 -20 23 -12 20 11 -4 16 1 17 17 2 16 0 19 -6 9
-5 -8 -18 -11 -32 -7 -13 3 -18 3 -12 0 10 -4 9 -12 -2 -35 -18 -34 -26 -36
-50 -9 -18 19 -17 23 4 103 33 119 80 226 112 255 16 14 27 28 24 30 -3 3 -12
-3 -21 -14 -19 -24 -7 1 18 39 30 42 229 169 243 155 3 -2 -21 -17 -52 -33
-50 -25 -54 -29 -35 -36 14 -5 20 -15 17 -28 -3 -14 1 -18 11 -14 9 3 12 0 9
-8 -3 -8 -19 -15 -36 -15 -23 -1 -29 2 -25 13 3 8 6 20 6 26 0 8 3 7 9 -1 7
-11 9 -11 14 2 9 22 -19 21 -32 -1 -5 -10 -22 -18 -38 -19 -15 -1 -31 -3 -35
-3 -4 -1 -12 -11 -19 -22 -6 -12 -7 -19 -1 -15 5 3 13 -1 16 -10 8 -21 -2 -33
-13 -15 -5 8 -11 9 -15 3 -7 -11 21 -25 35 -16 12 7 11 44 -1 44 -5 0 -10 5
-10 12 0 9 3 9 12 0 9 -9 15 -9 25 0 22 18 41 -7 25 -33 -7 -11 -10 -25 -6
-31 4 -7 3 -8 -4 -4 -7 4 -12 2 -12 -3 0 -6 9 -11 21 -11 15 0 19 5 15 15 -8
23 4 45 21 38 11 -4 14 -2 9 5 -4 7 -3 12 2 12 6 0 13 -7 16 -16 3 -8 2 -13
-3 -10 -4 3 -15 0 -24 -7 -13 -9 -14 -16 -6 -27 9 -13 10 -12 5 3 -3 9 -2 17
1 17 4 0 16 -8 27 -17 17 -15 19 -15 8 -1 -9 12 -10 18 -2 23 6 4 9 13 6 21
-3 8 0 15 7 16 7 0 19 2 27 2 8 1 14 7 12 14 -1 7 1 11 5 10 5 -1 24 12 43 29
19 18 60 49 90 70 34 24 56 47 58 61 4 26 26 36 98 48 l49 9 -40 6 c-29 5 -24
6 20 3 33 -2 76 1 95 6 39 10 101 7 234 -9z m-416 -8 c-10 -2 -26 -2 -35 0
-10 3 -2 5 17 5 19 0 27 -2 18 -5z m-545 -65 c-29 -29 -34 -31 -59 -19 -15 6
-24 14 -21 17 4 4 49 18 107 33 2 0 -10 -13 -27 -31z m1643 0 c4 -5 -6 -8 -22
-6 -15 2 -29 8 -31 14 -5 14 44 6 53 -8z m-1721 -138 c-25 -50 -52 -93 -59
-96 -8 -3 -41 9 -75 26 l-61 31 27 35 c51 65 100 94 160 94 l53 0 -45 -90z
m1802 75 c11 -8 39 -37 62 -64 l41 -49 -34 -20 -33 -20 -38 52 c-21 28 -49 66
-63 84 l-24 32 34 0 c18 0 43 -7 55 -15z m233 -20 c4 3 34 -3 66 -14 l58 -18
-49 -16 c-58 -20 -58 -20 -49 -4 6 9 4 9 -8 -1 -14 -11 -17 -10 -23 10 -10 36
-15 64 -9 50 3 -6 9 -10 14 -7z m-2330 -11 c0 -11 -5 -14 -16 -10 -9 3 -20 6
-25 6 -5 0 -9 5 -9 10 0 6 11 10 25 10 16 0 25 -6 25 -16z m-55 -5 c10 -15 -1
-23 -20 -15 -9 3 -13 10 -10 16 8 13 22 13 30 -1z m-4 -75 c31 -4 36 -9 32
-25 -4 -14 -11 -18 -22 -14 -9 3 -37 11 -62 16 -26 6 -55 17 -65 25 -17 14
-15 15 31 9 28 -3 66 -8 86 -11z m2559 7 c0 -5 -12 -12 -27 -15 -16 -4 -36 -9
-45 -12 -14 -4 -17 6 -9 34 2 7 81 1 81 -7z m-2703 -51 c-7 -31 1 -38 20 -19
13 13 43 5 43 -10 0 -6 -15 -14 -32 -19 l-33 -8 37 -18 c20 -10 44 -26 53 -36
17 -19 16 -20 -10 -30 -25 -10 -90 -7 -137 7 -15 4 -16 8 -6 26 6 12 11 23 10
25 -9 12 2 32 17 32 23 0 36 16 21 25 -8 5 -7 11 1 21 8 10 8 14 0 14 -6 0
-11 5 -11 10 0 6 7 10 16 10 13 0 15 -7 11 -30z m-96 -6 c19 -20 20 -24 5 -18
-17 7 -17 5 -3 -23 18 -33 8 -53 -25 -53 -13 0 -18 8 -18 28 -1 15 -7 38 -15
52 -20 34 -19 40 8 40 13 0 34 -11 48 -26z m2836 12 c-30 -31 -84 -56 -117
-56 -33 1 -32 2 35 35 77 37 106 45 82 21z m148 4 c6 -10 -21 -58 -45 -77 -12
-10 -18 -8 -32 10 -18 22 -23 58 -11 70 10 11 81 8 88 -3z m-3079 -47 c-3 -4
-14 1 -24 10 -15 16 -15 19 -2 27 11 7 17 4 24 -10 5 -11 6 -23 2 -27z m154
21 c0 -8 -4 -12 -10 -9 -5 3 -10 13 -10 21 0 8 5 12 10 9 6 -3 10 -13 10 -21z
m2800 -16 c0 -6 10 -22 22 -35 18 -19 20 -28 12 -51 -9 -25 -14 -27 -53 -24
-29 3 -41 0 -36 -7 3 -6 12 -11 20 -11 8 0 11 -7 8 -20 -11 -41 -103 -11 -103
34 0 8 14 24 30 36 17 12 30 28 30 35 0 17 39 55 57 55 7 0 13 -5 13 -12z
m-3070 -34 c0 -8 -12 -31 -26 -49 -34 -45 -57 -121 -49 -165 4 -19 18 -50 32
-69 15 -19 22 -36 16 -40 -6 -3 -36 -24 -67 -46 l-58 -39 -16 22 c-13 16 -21
19 -32 12 -26 -17 -30 -11 -30 40 0 36 -4 50 -14 50 -8 0 -17 -6 -19 -12 -3
-7 -6 -4 -6 8 -1 11 13 33 30 50 18 16 40 48 50 70 10 23 26 47 34 54 12 10
13 16 4 26 -6 8 -18 14 -25 14 -34 0 -8 24 59 55 79 38 117 44 117 19z m3471
-25 l84 -41 -35 -16 c-48 -22 -48 -22 -25 -40 11 -10 29 -36 39 -60 11 -24 33
-54 49 -67 30 -22 30 -45 1 -45 -11 0 -13 -6 -9 -21 4 -11 4 -31 1 -43 -5 -19
-11 -22 -31 -18 -17 3 -30 -1 -38 -11 -11 -15 -16 -15 -57 4 -24 11 -59 31
-77 45 l-33 25 27 35 c39 52 43 122 9 201 -25 61 -26 93 -2 93 7 0 50 -19 97
-41z m-3345 -61 c-14 -41 -26 -93 -26 -115 0 -36 -4 -44 -35 -63 -33 -21 -37
-21 -60 -6 -20 13 -25 25 -25 57 0 32 3 39 13 31 6 -5 22 -13 35 -16 16 -6 22
-3 22 8 0 9 -9 16 -20 16 -11 0 -23 6 -26 14 -7 18 42 96 60 96 8 0 27 15 43
34 15 18 32 30 36 26 5 -4 -3 -41 -17 -82z m3199 -47 c5 -18 3 -28 -11 -38
-14 -10 -15 -16 -6 -25 9 -9 16 -7 32 7 20 18 20 18 20 -9 0 -27 -47 -86 -68
-86 -5 0 -21 12 -36 26 -18 19 -26 37 -26 63 0 20 -9 51 -20 69 -19 31 -26 85
-15 114 7 19 119 -86 130 -121z m-2616 85 c-12 -26 -51 -36 -64 -16 -5 8 66
52 73 45 1 -1 -3 -14 -9 -29z m2442 -49 c-8 -8 -11 -2 -11 19 0 40 14 54 18
19 2 -15 -1 -32 -7 -38z m-2616 -34 c28 12 136 29 141 24 12 -12 -8 -27 -49
-37 -170 -43 -550 -196 -717 -287 -582 -320 -1006 -707 -1370 -1251 -34 -51
-58 -78 -64 -72 -6 6 2 28 22 60 18 28 32 55 32 60 0 14 -27 19 -57 11 -25 -7
-28 -12 -25 -45 2 -21 -4 -46 -13 -58 -20 -30 -19 -35 10 -50 l25 -14 -46 -78
c-25 -43 -47 -76 -50 -74 -2 2 1 20 6 39 17 57 11 134 -15 225 l-25 86 26 59
c15 33 24 62 21 66 -10 9 -44 -24 -61 -62 -21 -44 -20 -80 5 -172 16 -57 20
-95 17 -145 -9 -122 -54 -154 -197 -143 -86 6 -86 6 -145 -29 -52 -32 -86 -44
-86 -31 0 20 30 59 61 79 36 24 46 26 147 24 79 -2 114 1 126 11 23 19 13 28
-44 35 l-51 7 43 32 c66 50 78 83 78 214 0 128 12 166 79 250 22 29 41 55 41
58 0 14 -42 2 -77 -24 -54 -39 -83 -102 -90 -195 l-6 -74 -31 28 c-30 29 -30
30 -18 77 38 144 118 230 294 316 62 31 131 59 153 63 l40 7 -70 -52 c-38 -29
-74 -57 -80 -62 -17 -18 46 2 107 32 38 19 72 29 100 28 l43 0 -30 -22 c-16
-12 -50 -41 -76 -64 -33 -31 -55 -43 -77 -43 -59 0 -129 -21 -152 -45 l-23
-25 26 -24 c46 -43 44 -86 -10 -168 -19 -29 -12 -48 10 -29 8 6 33 13 55 15
71 7 98 35 128 134 15 48 34 103 44 122 19 37 161 180 179 180 5 0 26 14 46
31 41 36 45 29 10 -17 -27 -36 -32 -54 -13 -54 7 0 79 67 160 150 140 141 166
178 138 195 -17 10 19 53 71 85 28 17 48 34 46 38 -43 92 -54 96 -198 71 -63
-11 -136 -26 -162 -35 -85 -28 -75 -5 48 111 63 60 120 112 127 116 19 12 29
0 18 -21 -5 -10 -8 -25 -5 -32 3 -8 -12 -21 -37 -33 -23 -11 -44 -26 -46 -34
-4 -11 13 -13 99 -7 128 8 129 8 129 16 0 9 -51 55 -74 67 -17 10 -13 17 47
75 75 75 121 100 193 106 42 3 55 1 72 -16 11 -11 26 -19 34 -19 19 3 25 -17
5 -21 -8 -2 -25 6 -36 17 -30 30 -67 26 -136 -15 -57 -34 -58 -35 -25 -31 19
2 43 7 53 12 33 14 18 -17 -34 -68 -52 -51 -69 -81 -69 -122 0 -27 31 -49 58
-41 29 8 92 16 92 11 0 -13 -65 -35 -105 -35 -43 0 -45 -1 -45 -28 0 -16 6
-36 13 -45 12 -17 15 -16 53 5 120 68 157 90 282 171 75 49 166 103 202 121
36 18 83 44 105 57 22 14 70 39 107 56 55 26 70 38 82 66 18 44 46 60 92 51
26 -5 65 3 154 32 l120 38 2 50 2 51 3 -48 c3 -36 8 -47 18 -44z m2266 70 c13
-17 13 -17 -6 -3 -11 8 -22 16 -24 17 -2 2 0 3 6 3 6 0 17 -8 24 -17z m-2631
-38 c-7 -9 -15 -13 -17 -11 -7 7 7 26 19 26 6 0 6 -6 -2 -15z m199 -1 c3 -3
-1 -10 -8 -17 -11 -9 -14 -9 -18 1 -5 14 -44 16 -58 4 -6 -5 -18 -1 -29 11
-18 19 -18 19 45 12 35 -4 66 -9 68 -11z m-614 -4 c-3 -5 -12 -10 -18 -10 -7
0 -6 4 3 10 19 12 23 12 15 0z m3355 -10 c0 -5 -5 -10 -11 -10 -5 0 -7 5 -4
10 3 6 8 10 11 10 2 0 4 -4 4 -10z m87 -50 c13 -35 11 -36 -23 -14 -19 13 -22
20 -13 30 17 20 23 17 36 -16z m-3007 11 c0 -5 -13 -11 -30 -13 -24 -4 -27 -2
-19 9 13 15 49 18 49 4z m2318 -28 c-10 -2 -26 -2 -35 0 -10 3 -2 5 17 5 19 0
27 -2 18 -5z m98 -9 c10 -8 13 -12 6 -9 -8 4 -26 11 -40 15 -22 7 -23 8 -6 9
11 1 29 -6 40 -15z m-1988 -66 c-11 -29 -35 -90 -52 -135 l-30 -83 -66 -21
c-166 -55 -458 -196 -625 -302 -406 -258 -732 -570 -999 -956 -173 -249 -287
-462 -394 -731 -145 -365 -210 -667 -243 -1119 -11 -158 1 -426 26 -609 35
-249 106 -560 166 -727 18 -49 36 -115 41 -145 27 -175 38 -301 38 -430 l0
-145 -52 90 c-123 213 -260 554 -322 800 -62 247 -124 664 -114 766 2 19 7
-10 12 -64 7 -85 10 -98 24 -92 14 5 15 4 5 -6 -18 -18 -16 -32 3 -25 13 5 15
1 10 -19 -5 -18 -2 -27 9 -31 12 -5 13 -9 4 -21 -10 -11 -9 -18 6 -31 10 -9
15 -11 11 -5 -5 9 -2 11 8 7 9 -3 13 -10 10 -15 -3 -5 0 -9 5 -9 6 0 11 -5 11
-11 0 -6 -9 -8 -22 -3 -20 6 -20 5 -7 -8 8 -9 25 -19 37 -22 12 -4 20 -12 16
-17 -3 -6 -13 -8 -21 -5 -9 4 -13 1 -11 -6 3 -7 15 -15 29 -16 13 -2 29 -8 34
-14 7 -8 6 -9 -2 -4 -6 3 -14 2 -18 -4 -4 -6 -11 -8 -16 -5 -5 4 -9 1 -9 -5 0
-7 7 -10 15 -7 8 4 17 2 20 -2 3 -5 -2 -11 -10 -15 -8 -3 -15 -13 -15 -21 0
-9 5 -13 11 -10 17 11 59 -4 59 -21 0 -10 -6 -14 -15 -10 -13 4 -14 2 -5 -14
12 -22 32 -27 29 -7 -3 26 2 36 16 31 8 -4 15 -1 15 5 0 6 -4 11 -8 11 -5 0
-17 7 -28 16 -19 15 -19 15 2 9 14 -3 21 -1 21 9 0 9 -5 12 -10 9 -6 -4 -7 -1
-2 8 12 19 16 69 6 69 -5 0 -5 15 -1 34 6 28 5 33 -7 29 -8 -3 -13 0 -11 8 2
8 -4 13 -14 11 -12 -2 -15 3 -11 18 3 11 0 20 -6 20 -6 0 -11 5 -11 11 0 5 5
7 10 4 17 -11 42 23 35 46 -5 16 -4 19 5 14 9 -5 11 -4 6 3 -4 7 -15 12 -24
12 -13 0 -14 2 -4 9 15 9 23 69 10 73 -5 2 -9 14 -10 28 -1 14 -5 30 -10 37
-5 6 -5 14 1 17 7 5 7 15 1 31 -5 14 -6 35 -1 48 4 12 9 78 9 147 1 69 5 144
8 167 3 23 2 47 -2 55 -4 7 -7 28 -6 48 2 19 -2 57 -7 85 -5 27 -7 54 -3 59 3
5 6 21 7 35 2 14 7 49 12 78 9 45 8 51 -6 46 -11 -3 -10 0 3 11 11 9 17 16 13
16 -3 0 0 15 7 33 26 63 30 80 14 74 -11 -4 -14 1 -10 19 2 13 9 27 14 30 5 3
1 13 -9 21 -17 13 -17 14 -1 9 12 -3 18 0 18 10 0 8 -5 12 -11 8 -8 -5 -8 -1
0 14 6 12 15 23 19 26 4 3 7 23 6 45 -1 23 3 41 8 41 5 0 8 6 7 13 -1 6 1 20
6 30 4 9 5 26 2 37 -3 11 -1 20 5 20 5 0 6 9 3 20 -6 18 3 25 28 21 9 -1 9 13
0 23 -12 12 -10 30 6 46 9 10 10 15 2 18 -6 2 -11 8 -11 13 0 6 4 8 9 4 5 -3
12 -1 16 5 3 5 -1 10 -9 10 -17 0 -21 15 -7 24 5 4 8 14 7 24 -2 9 4 22 13 29
15 11 15 12 0 13 -9 0 -23 -10 -32 -22 -12 -19 -17 -21 -29 -10 -11 11 -10 12
3 7 10 -4 19 0 22 9 4 9 1 16 -6 16 -7 0 -4 7 7 15 10 8 16 21 13 29 -3 8 4
22 18 32 22 16 22 19 7 31 -24 18 -34 16 -23 -5 11 -21 -3 -42 -26 -42 -10 0
-11 -5 -4 -18 7 -14 5 -21 -10 -30 -10 -7 -22 -12 -26 -12 -5 0 -2 4 6 9 7 5
11 15 9 22 -3 9 -10 7 -25 -8 -12 -12 -24 -19 -27 -15 -7 6 -10 -29 -7 -72 2
-23 -1 -28 -14 -23 -9 4 -15 2 -14 -6 1 -6 -6 -30 -16 -52 -10 -22 -18 -52
-19 -67 0 -14 -5 -24 -10 -21 -5 3 -7 -6 -4 -20 3 -15 1 -28 -3 -29 -5 -2 -17
-37 -28 -78 -11 -41 -20 -66 -20 -55 -1 24 55 224 97 345 108 311 261 620 442
890 391 581 986 1074 1604 1327 97 40 388 142 408 143 4 0 -2 -24 -14 -52z
m3160 17 c-3 -3 -9 2 -12 12 -6 14 -5 15 5 6 7 -7 10 -15 7 -18z m-1142 -41
c32 -25 89 -68 127 -95 37 -28 67 -52 67 -55 0 -2 -30 15 -67 38 -38 22 -99
57 -138 77 -67 34 -74 35 -165 33 -155 -4 -403 -55 -532 -111 -74 -32 -120
-82 -250 -275 -168 -249 -408 -514 -584 -645 -32 -25 -70 -55 -84 -67 -14 -12
-38 -30 -54 -40 -49 -31 -24 -1 155 192 92 99 193 211 225 249 31 39 88 103
126 142 37 40 89 105 114 145 101 157 134 205 156 225 67 63 405 178 623 212
194 31 211 29 281 -25z m1257 4 c15 -12 13 -13 -23 -16 -29 -2 -40 1 -40 12 0
8 -3 22 -6 31 -6 16 -5 16 22 2 16 -9 37 -21 47 -29z m-4214 -33 c-17 -94 -47
-180 -70 -201 l-21 -19 5 59 c4 42 17 84 47 143 23 47 44 83 46 80 2 -2 -1
-30 -7 -62z m3393 -23 c429 -173 859 -460 1198 -801 302 -304 522 -613 710
-996 230 -472 347 -946 366 -1495 7 -191 -5 -495 -17 -405 -3 28 -7 40 -7 28
-2 -15 -7 -21 -17 -17 -8 4 -12 11 -8 17 3 6 1 7 -5 3 -22 -14 -34 5 -16 25
15 17 15 19 0 25 -9 3 -13 11 -9 18 3 6 2 7 -3 3 -5 -5 -10 -13 -10 -18 -1 -5
-2 -12 -3 -15 0 -3 -14 3 -31 13 -24 14 -32 15 -42 4 -7 -7 -8 -12 -3 -11 24
5 25 -2 6 -26 -11 -15 -18 -31 -15 -36 3 -5 -2 -16 -12 -23 -11 -8 -14 -15 -8
-15 7 0 15 -7 18 -15 4 -11 0 -15 -12 -13 -10 2 -16 -3 -14 -10 1 -8 -2 -11
-7 -8 -5 4 -12 -6 -14 -21 -2 -16 -2 6 0 47 28 547 -35 1049 -183 1458 -191
528 -433 917 -822 1323 -267 278 -560 489 -927 669 l-160 78 -95 143 c-52 78
-96 146 -98 150 -4 9 125 -34 240 -79z m618 28 c11 -22 16 -40 11 -40 -5 0
-12 8 -14 18 -3 10 -5 6 -6 -10 -1 -25 8 -33 24 -25 3 1 18 -20 34 -48 27 -46
28 -52 13 -67 -28 -32 -49 -17 -67 49 -7 26 -23 163 -18 163 1 0 12 -18 23
-40z m-2794 -27 c0 -10 5 -17 12 -15 6 1 12 -4 13 -10 0 -7 2 -21 4 -30 2 -10
-1 -20 -6 -24 -5 -3 -9 0 -9 6 0 6 -5 8 -11 4 -25 -15 -40 51 -17 74 15 15 16
15 14 -5z m3105 -31 c41 -26 149 -137 149 -153 0 -4 -15 -10 -34 -13 -19 -4
-39 -13 -46 -21 -18 -22 -30 -18 -30 8 0 34 -25 52 -110 81 -41 14 -73 26 -70
26 3 1 41 7 85 14 l80 12 -40 18 c-22 9 -61 22 -87 28 -58 14 -53 28 11 28 35
0 59 -7 92 -28z m-4285 -57 c-18 -37 -45 -62 -32 -29 5 10 15 39 24 64 14 37
17 41 20 22 2 -13 -4 -39 -12 -57z m1254 8 c0 -10 -4 -14 -8 -8 -4 6 -11 13
-16 18 -5 4 -2 7 7 7 10 0 17 -8 17 -17z m1515 -10 c-22 -90 -232 -256 -350
-278 -29 -5 -30 -5 -5 6 14 7 48 23 77 36 29 13 85 55 125 94 l73 70 -70 -44
c-88 -56 -164 -94 -235 -119 -66 -23 -150 -38 -150 -27 0 4 63 39 139 78 77
38 179 94 228 124 82 51 146 84 167 86 4 1 5 -11 1 -26z m1175 -46 c0 -5 -4
-5 -10 -2 -5 3 -10 14 -10 23 0 15 2 15 10 2 5 -8 10 -19 10 -23z m-2610 -2
c14 -19 14 -19 -2 -6 -10 7 -18 18 -18 24 0 6 1 8 3 6 1 -2 9 -13 17 -24z m65
-16 c-3 -3 2 -15 10 -25 19 -25 19 -35 0 -28 -8 4 -15 15 -15 26 0 10 -4 16
-10 13 -6 -3 -7 1 -4 9 3 9 1 16 -5 16 -6 0 -11 5 -11 10 0 6 8 5 19 -2 11 -7
18 -15 16 -19z m-1665 11 c0 -5 -5 -10 -11 -10 -5 0 -7 5 -4 10 3 6 8 10 11
10 2 0 4 -4 4 -10z m4440 -10 c0 -5 -2 -10 -4 -10 -3 0 -8 5 -11 10 -3 6 -1
10 4 10 6 0 11 -4 11 -10z m-2686 -48 c20 -23 13 -44 -12 -40 -10 1 -23 -1
-29 -5 -9 -6 -11 -1 -7 21 4 19 1 32 -10 41 -9 8 -16 18 -16 22 0 13 51 -15
74 -39z m981 21 c-30 -16 -274 -123 -281 -123 -2 0 2 12 8 28 17 39 54 69 107
86 67 21 80 24 141 24 l55 1 -30 -16z m-2625 -45 c-24 -19 -40 -16 -40 8 0 10
9 14 31 12 l31 -2 -22 -18z m4221 -15 c13 -16 12 -17 -3 -4 -10 7 -18 15 -18
17 0 8 8 3 21 -13z m229 -14 c0 -5 -4 -9 -10 -9 -5 0 -10 7 -10 16 0 8 5 12
10 9 6 -3 10 -10 10 -16z m-4630 -5 c0 -2 -9 -4 -21 -4 -11 0 -18 4 -14 10 5
8 35 3 35 -6z m4754 7 c17 -6 15 -9 -12 -20 -16 -7 -40 -23 -53 -37 -29 -30
-73 -31 -158 -3 -77 26 -74 36 5 15 64 -17 102 -8 138 33 19 21 46 26 80 12z
m-154 -13 c0 -10 -29 -9 -55 2 -15 6 -11 8 17 7 21 -1 38 -5 38 -9z m-3525
-167 c-25 -83 -54 -171 -65 -196 l-19 -44 -48 16 c-72 24 -73 29 -20 74 76 65
99 136 57 174 -17 15 -24 16 -49 6 -71 -30 -111 -114 -77 -166 10 -16 14 -34
10 -50 -8 -32 8 -52 49 -61 75 -16 78 -19 62 -63 -22 -65 -47 -249 -43 -322 2
-38 2 -69 0 -69 -1 0 -12 21 -23 46 -37 87 -115 171 -202 217 -64 34 -220 61
-310 54 -194 -16 -321 -161 -322 -367 0 -121 35 -191 159 -314 122 -122 159
-139 301 -144 81 -3 120 0 145 11 34 14 36 13 60 -15 32 -38 105 -50 145 -24
14 9 25 12 25 6 0 -18 -79 -209 -126 -303 -25 -50 -69 -129 -97 -174 -50 -80
-53 -83 -97 -88 -77 -10 -178 -46 -247 -88 -64 -39 -69 -40 -107 -28 -99 29
-112 31 -189 20 -85 -11 -129 -6 -148 17 -6 8 -7 14 -2 14 11 0 116 87 308
257 151 133 250 240 250 271 0 31 -23 18 -57 -33 -19 -27 -86 -96 -149 -153
-142 -129 -346 -304 -365 -315 -10 -5 -20 2 -33 24 l-20 32 47 22 c26 12 71
44 100 70 52 47 352 379 352 390 0 3 -11 5 -24 5 -16 0 -33 -13 -52 -37 -50
-67 -220 -256 -287 -320 -96 -93 -140 -105 -156 -45 -42 149 41 462 193 730
26 46 45 86 42 89 -19 20 -170 -258 -215 -398 -64 -196 -75 -321 -41 -454 24
-94 60 -159 103 -186 29 -18 43 -20 141 -14 97 6 116 4 173 -16 l64 -23 97 51
c84 44 229 99 238 90 2 -1 -10 -29 -26 -61 -20 -40 -30 -74 -30 -105 0 -45 -1
-46 -53 -74 -29 -15 -75 -47 -104 -72 l-51 -45 -11 28 c-16 37 -93 117 -133
138 -18 9 -59 19 -93 21 -51 4 -65 1 -95 -19 -19 -13 -45 -43 -58 -68 -20 -39
-23 -55 -18 -119 7 -104 26 -117 26 -18 0 83 18 134 60 172 27 24 121 25 166
2 34 -18 82 -67 117 -119 l24 -37 -28 -58 c-15 -32 -53 -132 -84 -223 -99
-286 -166 -441 -243 -560 -49 -76 -202 -278 -285 -377 l-69 -82 -45 42 c-40
37 -44 45 -39 77 3 19 3 29 0 23 -3 -7 -10 -13 -15 -13 -6 0 -7 4 -4 10 3 6
-1 10 -9 10 -10 0 -13 -6 -10 -15 4 -8 1 -15 -5 -15 -6 0 -11 5 -11 10 0 6 -6
10 -14 10 -26 0 16 94 62 139 58 57 89 107 107 176 27 106 13 175 -47 218 -53
39 -146 -7 -169 -83 -10 -32 -8 -47 11 -104 24 -73 21 -113 -11 -142 -18 -16
-25 -16 -65 -6 -24 7 -49 12 -54 12 -19 0 -10 -16 19 -33 44 -26 85 -22 125
13 45 40 53 83 26 145 -26 60 -25 96 1 129 60 76 139 41 139 -62 0 -52 -26
-137 -57 -183 -13 -20 -51 -61 -84 -89 -56 -49 -65 -53 -123 -57 -98 -8 -154
27 -184 115 -17 48 5 96 50 111 68 22 164 -28 151 -79 -4 -15 -1 -20 16 -20
51 0 26 73 -40 117 -52 34 -125 37 -167 7 -43 -32 -65 -86 -53 -129 5 -21 6
-33 0 -30 -5 4 -9 14 -9 23 0 10 -3 13 -8 7 -10 -15 -52 -16 -52 -2 0 7 -4 6
-9 -2 -8 -12 -12 -10 -22 12 -7 15 -19 27 -28 27 -9 0 -24 7 -33 14 -33 24
-22 418 18 636 19 106 23 120 35 120 21 0 210 75 331 132 69 32 141 61 160 64
30 4 36 0 70 -45 29 -38 56 -60 120 -92 146 -76 196 -140 213 -269 5 -35 4
-41 -5 -27 -6 9 -8 22 -5 27 4 6 1 9 -6 8 -6 -2 -14 3 -17 11 -3 9 0 11 9 6 8
-5 11 -5 7 -1 -3 4 -9 6 -11 4 -10 -6 -56 45 -50 55 3 6 2 7 -4 4 -5 -3 -26 5
-46 18 -19 14 -57 33 -84 44 -40 15 -52 26 -69 63 -23 46 -85 108 -109 108
-25 0 -27 -20 -3 -29 33 -12 54 -39 82 -103 23 -52 29 -58 82 -77 69 -26 136
-71 168 -114 23 -31 61 -126 53 -133 -2 -3 -21 3 -43 12 -33 14 -56 15 -144 8
-131 -10 -196 -10 -286 0 -61 7 -83 5 -144 -13 -40 -12 -74 -20 -77 -17 -11
11 8 56 49 117 54 80 121 119 204 119 58 0 70 13 29 32 l-26 11 32 33 c17 17
27 34 21 37 -5 4 -26 -12 -47 -33 -22 -22 -47 -40 -58 -40 -48 0 -145 -79
-197 -161 -18 -27 -34 -49 -37 -49 -13 0 8 103 30 147 33 64 124 153 197 192
63 34 82 51 55 51 -30 0 -120 -49 -175 -96 -95 -81 -150 -180 -150 -271 0 -38
37 -122 57 -130 7 -3 32 3 56 12 36 15 81 18 312 20 288 2 318 -2 354 -46 30
-37 41 -15 41 79 0 230 -55 331 -226 412 -65 31 -92 51 -134 99 -35 40 -61 61
-75 61 -12 0 -73 -24 -136 -54 -129 -62 -369 -159 -376 -153 -14 15 104 410
176 591 259 645 782 1270 1357 1622 186 114 574 297 582 275 2 -5 -18 -76 -43
-160z m2100 80 c1 -10 14 -34 29 -52 60 -73 118 -195 89 -187 -5 1 -50 -13
-101 -31 -136 -50 -222 -136 -253 -253 -22 -80 -1 -193 57 -305 63 -123 62
-125 -116 -127 -58 -1 -113 -5 -122 -10 -24 -11 -35 18 -20 57 16 42 5 48 -25
13 -30 -35 -25 -68 16 -109 26 -27 28 -27 57 -12 32 17 54 19 54 7 0 -5 10 -8
21 -8 34 1 33 -20 -1 -34 -38 -16 -38 -32 1 -64 35 -30 49 -33 49 -11 0 20 26
19 34 -1 10 -25 7 -33 -14 -44 -15 -8 -30 -8 -55 2 -31 11 -44 9 -118 -15
-113 -36 -208 -49 -253 -33 -32 11 -34 14 -20 25 24 20 19 33 -6 20 -29 -15
-68 -50 -68 -61 0 -5 9 -4 20 2 17 9 35 4 105 -34 101 -53 218 -138 204 -147
-19 -12 20 -30 76 -36 61 -6 95 -34 95 -79 0 -27 -60 -99 -99 -118 -76 -39
-206 -26 -321 32 -69 35 -74 40 -94 92 -12 30 -52 98 -90 150 -37 52 -75 108
-83 125 -21 39 -33 154 -26 238 5 62 9 71 54 122 26 30 62 85 81 123 30 63 36
70 69 76 19 3 62 20 95 37 32 17 77 34 99 38 34 5 40 10 38 29 -3 20 2 22 40
22 72 0 122 51 93 95 -8 13 -20 44 -27 69 -7 27 -22 54 -36 66 -23 18 -198 64
-291 77 -51 7 -44 23 21 48 41 15 44 15 106 -10 42 -18 91 -28 147 -32 82 -6
86 -5 158 31 76 37 147 98 220 189 31 40 43 48 62 43 12 -3 26 -1 29 5 9 13
18 4 20 -20z m455 -67 c0 -59 -20 -131 -62 -229 -17 -38 -39 -92 -49 -120 -10
-27 -18 -41 -18 -30 0 19 11 54 78 233 24 65 31 100 31 155 0 50 3 67 10 57 5
-8 10 -38 10 -66z m-3769 50 c11 -14 9 -19 -11 -35 -14 -10 -37 -21 -52 -24
-28 -7 -31 -12 -68 -133 -12 -40 -26 -75 -31 -78 -5 -3 -4 7 1 21 6 15 10 59
10 98 0 75 -16 117 -46 117 -8 0 -14 5 -14 10 0 16 46 11 61 -6 12 -15 15 -14
30 5 32 39 97 53 120 25z m3974 -57 c313 -164 559 -348 829 -622 213 -215 370
-422 531 -699 61 -105 181 -354 200 -414 6 -21 5 -23 -13 -13 -12 6 -38 15
-58 19 l-37 7 -27 100 c-66 241 -106 299 -319 457 -207 154 -236 182 -343 326
-55 74 -118 154 -141 179 -54 59 -181 162 -256 208 -65 39 -273 125 -426 175
-55 18 -101 34 -103 35 -2 2 4 37 12 79 9 41 16 109 16 151 0 41 3 75 7 75 3
0 61 -29 128 -63z m987 55 c15 -6 15 -9 -3 -30 -17 -22 -22 -23 -54 -12 -40
13 -45 27 -12 40 26 10 46 11 69 2z m137 -18 c2 -1 -12 -9 -30 -17 -49 -20
-63 -43 -69 -106 l-5 -56 -23 35 c-32 51 -29 85 13 127 31 31 38 33 72 27 21
-4 40 -8 42 -10z m-2306 -1 c-7 -2 -19 -2 -25 0 -7 3 -2 5 12 5 14 0 19 -2 13
-5z m-43 -7 c0 -7 -102 -27 -108 -22 -2 3 11 9 29 15 36 10 79 14 79 7z
m-2922 -78 c-7 -21 -21 -11 -33 27 l-14 40 25 -29 c14 -15 23 -33 22 -38z
m-58 33 c5 -11 10 -32 10 -46 0 -25 -2 -26 -32 -20 -18 4 -36 9 -40 12 -10 5
-10 57 -1 66 13 14 53 6 63 -12z m1343 -2 c14 -22 -36 -109 -61 -109 -26 0
-42 20 -42 50 0 59 76 102 103 59z m4103 3 c12 -9 29 -30 39 -45 17 -27 17
-28 -5 -52 l-24 -25 -13 31 c-7 17 -13 40 -13 50 0 24 -20 35 -31 18 -15 -23
-10 -46 16 -85 26 -38 32 -60 15 -49 -5 3 -10 -2 -11 -12 0 -13 -3 -12 -10 7
-6 14 -17 29 -25 33 -12 7 -12 12 -3 23 9 11 6 16 -17 24 -41 14 -56 24 -68
44 -28 45 101 78 150 38z m-5549 -22 c4 -26 -16 -36 -35 -16 -15 14 -15 17 3
30 22 16 28 14 32 -14z m5682 -26 c34 -43 24 -114 -15 -114 -9 0 -10 7 -1 30
9 24 8 36 -6 65 -20 41 -20 45 -8 45 5 0 19 -12 30 -26z m-5742 -29 c-1 -32
-2 -33 -18 -19 -15 13 -16 20 -6 35 18 28 25 23 24 -16z m-72 -23 c-6 -30 -4
-34 7 -24 11 9 19 8 36 -4 12 -8 19 -20 16 -26 -4 -6 -2 -8 3 -5 12 7 39 -20
30 -29 -3 -3 -13 -1 -24 4 -10 6 -37 18 -60 27 -23 10 -50 27 -60 37 -17 19
-17 21 10 44 36 31 51 22 42 -24z m113 10 c2 -7 -2 -10 -12 -6 -9 3 -16 11
-16 16 0 13 23 5 28 -10z m100 -13 c30 -8 42 -17 42 -30 0 -15 -7 -19 -35 -19
-20 0 -35 5 -35 12 0 6 -10 23 -22 36 -14 15 -17 22 -8 19 8 -3 34 -11 58 -18z
m-108 -30 c0 -6 -4 -7 -10 -4 -5 3 -10 11 -10 16 0 6 5 7 10 4 6 -3 10 -11 10
-16z m60 1 c0 -5 -7 -7 -15 -4 -8 4 -12 10 -9 15 6 11 24 2 24 -11z m5603 -14
c-12 -15 -24 -21 -32 -17 -9 6 -5 14 15 30 34 27 43 20 17 -13z m-148 -27 c10
-42 2 -45 -11 -3 -6 19 -8 34 -3 34 4 0 10 -14 14 -31z m344 -5 c72 -60 24
-119 -128 -158 -64 -16 -65 -15 -120 10 -31 14 -63 32 -73 41 -17 15 -17 17
12 34 16 10 56 25 87 33 73 18 157 49 161 59 7 14 31 7 61 -19z m-6083 7 c5
-5 29 -11 54 -14 47 -5 248 -72 264 -87 6 -6 2 -12 -9 -16 -11 -5 -20 -3 -23
4 -6 18 -27 14 -46 -7 -10 -11 -40 -29 -69 -41 l-51 -22 -55 23 c-97 39 -168
93 -153 115 8 11 64 53 73 54 3 0 9 -4 15 -9z m271 -33 c-3 -8 -6 -5 -6 6 -1
11 2 17 5 13 3 -3 4 -12 1 -19z m29 -15 c-11 -11 -17 4 -9 23 7 18 8 18 11 1
2 -10 1 -21 -2 -24z m72 10 c-2 -20 -9 -29 -25 -31 -27 -4 -30 14 -6 40 23 26
35 22 31 -9z m5339 -30 c-15 -14 -42 -21 -45 -10 -5 19 0 28 21 36 26 10 43
-8 24 -26z m-2725 -81 c27 -86 21 -107 -7 -27 -25 69 -32 105 -18 91 4 -4 15
-32 25 -64z m1569 8 c368 -136 509 -234 709 -497 63 -83 129 -166 145 -184 17
-17 100 -83 185 -146 240 -179 273 -217 329 -377 46 -129 82 -310 112 -563 15
-123 6 -166 -50 -226 -37 -39 -40 -40 -97 -39 -32 1 -86 -4 -118 -12 -57 -14
-64 -13 -145 11 -264 76 -560 232 -894 471 -121 86 -288 181 -320 182 -10 0
-22 12 -28 27 -5 14 -34 67 -63 117 -29 50 -55 98 -59 107 -3 9 8 54 24 100
30 87 37 166 20 225 -8 27 -6 33 13 41 21 10 21 9 21 -101 0 -105 2 -115 33
-180 48 -101 110 -183 247 -324 140 -145 237 -219 380 -290 150 -74 280 -113
398 -120 84 -4 100 -2 117 13 27 25 27 115 -1 198 -40 119 -219 450 -235 434
-3 -2 38 -91 90 -196 133 -269 168 -381 129 -412 -45 -38 -243 1 -432 85 -192
85 -262 150 -302 280 -21 66 -31 197 -17 211 4 4 28 -9 54 -29 53 -40 87 -44
92 -10 3 18 -15 79 -44 148 -7 19 -7 19 25 0 18 -10 53 -40 77 -66 25 -27 47
-48 49 -48 2 0 7 25 10 55 4 30 8 55 9 55 0 0 25 -9 55 -20 29 -12 56 -18 59
-16 15 16 -198 256 -227 256 -24 0 -7 -22 96 -124 59 -58 104 -109 100 -112
-16 -16 -160 102 -193 158 -11 19 -85 68 -101 68 -9 0 -13 -16 -13 -50 0 -27
-2 -50 -5 -50 -3 0 -21 18 -41 40 -58 64 -94 50 -94 -35 0 -49 28 -124 62
-169 11 -14 13 -28 7 -55 -19 -76 14 -235 62 -302 50 -70 2 -31 -129 108 -169
177 -209 228 -252 312 -40 79 -50 141 -39 243 7 67 12 83 31 96 73 52 122 141
138 256 5 32 11 60 14 63 10 10 179 -138 316 -276 254 -255 376 -450 387 -621
7 -92 -8 -116 -65 -106 -63 10 -95 63 -52 86 28 15 25 30 -5 30 -18 0 -26 -7
-31 -26 -10 -40 7 -74 46 -95 45 -25 85 -24 109 2 26 28 31 69 20 164 -18 145
-101 285 -300 505 -100 110 -305 297 -378 346 -35 23 -40 30 -35 53 4 14 10
29 13 33 12 14 132 -76 280 -210 122 -111 235 -242 384 -446 163 -223 227
-323 283 -440 42 -89 104 -279 104 -318 0 -11 5 -18 13 -15 16 5 12 40 -20
157 -48 183 -142 352 -363 654 -183 251 -304 382 -492 533 -92 75 -105 88 -92
100 22 23 36 53 24 53 -5 0 -10 -3 -10 -7 0 -5 -9 -19 -19 -32 l-19 -25 -41
27 c-38 25 -41 31 -41 73 0 25 -5 54 -10 65 -10 17 -5 17 62 -7 153 -55 312
-156 454 -287 39 -37 75 -63 79 -59 5 4 5 2 2 -4 -4 -7 0 -17 8 -24 9 -7 59
-67 113 -134 53 -66 139 -165 190 -219 88 -93 119 -138 107 -157 -3 -4 -14 -6
-24 -3 -26 7 -61 -30 -61 -63 0 -15 23 -69 52 -122 28 -52 66 -141 84 -196 23
-71 38 -102 50 -105 11 -2 15 2 12 10 -3 8 -16 46 -29 86 l-23 72 28 22 c33
26 26 38 -9 15 -25 -16 -26 -16 -35 10 -6 14 -8 29 -5 34 3 4 -3 14 -11 21
-30 25 -64 88 -64 118 0 17 11 42 25 59 31 37 32 80 4 116 -22 27 -11 37 12
10 7 -8 30 -24 51 -35 21 -11 45 -31 55 -45 16 -26 16 -27 -6 -45 -13 -11 -31
-20 -40 -21 -9 0 -20 -2 -26 -3 -5 -2 -16 -3 -24 -4 -11 -1 -11 -4 0 -17 13
-16 60 -15 115 1 21 6 21 4 20 -69 0 -42 -4 -76 -8 -76 -4 0 -14 12 -21 26
l-14 27 -7 -26 c-5 -21 3 -39 40 -89 25 -35 54 -79 64 -99 36 -69 64 -219 42
-219 -20 0 -50 49 -61 101 -11 55 -53 129 -71 129 -15 0 -12 -10 14 -61 14
-29 26 -75 30 -120 8 -81 31 -119 72 -119 51 0 65 137 24 245 -13 33 -40 86
-62 117 -43 65 -43 64 -23 71 8 4 36 -11 65 -34 66 -52 86 -49 84 12 -2 55
-41 137 -83 172 -32 26 -101 44 -123 31 -7 -4 0 5 15 19 28 27 28 28 11 56 -9
16 -52 52 -95 80 -84 54 -100 61 -78 34 13 -16 12 -17 -3 -5 -10 8 -16 17 -15
21 1 4 -24 31 -56 61 -32 29 -106 112 -165 184 -173 213 -334 362 -475 440
-55 30 -239 96 -269 96 -6 0 -30 15 -53 34 -23 19 -60 44 -83 56 -32 17 -42
28 -42 46 0 13 4 24 8 24 4 0 82 -27 173 -60z m-1631 -8 c0 -23 -55 -76 -69
-68 -17 11 -14 21 15 55 29 35 54 40 54 13z m1297 -139 c-2 -16 -4 -3 -4 27 0
30 2 43 4 28 2 -16 2 -40 0 -55z m-2847 17 c56 -20 63 -29 43 -54 -18 -21 -18
-21 3 -3 11 9 25 17 31 17 14 0 125 -118 156 -166 38 -61 57 -137 57 -230 l0
-83 -27 15 c-56 28 -124 8 -169 -51 -22 -30 -29 -50 -32 -100 -4 -58 -7 -64
-31 -74 -77 -30 -201 -18 -285 27 -69 38 -208 178 -240 244 -54 110 -53 209 2
318 30 60 99 119 167 145 48 18 270 14 325 -5z m2973 -89 c47 -65 54 -94 12
-46 -40 46 -75 112 -75 141 1 13 6 8 16 -15 8 -19 29 -55 47 -80z m-1196 77
c-3 -8 -6 -5 -6 6 -1 11 2 17 5 13 3 -3 4 -12 1 -19z m98 0 c14 -21 14 -24 -2
-35 -16 -13 -73 -18 -73 -8 0 10 44 65 51 65 4 0 15 -10 24 -22z m1164 -50
c12 -21 20 -38 18 -38 -7 0 -67 95 -67 106 0 9 14 -10 49 -68z m-404 -120 c9
-81 -7 -163 -47 -242 -16 -32 -31 -56 -33 -54 -3 2 -30 44 -61 94 -81 126
-126 212 -119 224 4 7 33 10 71 8 35 -2 63 1 61 6 -1 5 20 15 46 23 26 8 51
21 54 30 5 14 7 13 14 -4 4 -10 10 -49 14 -85z m-4092 -15 c-26 -86 -45 -121
-71 -132 -21 -10 -23 -10 -14 1 6 8 14 33 18 56 6 36 3 47 -16 67 l-22 24 43
11 c24 6 49 13 54 15 21 8 22 4 8 -42z m2712 -23 c10 -22 15 -43 12 -46 -4 -4
-26 15 -51 42 -40 44 -43 50 -29 61 21 17 43 -2 68 -57z m69 54 c3 -9 6 -25 6
-37 0 -20 -2 -20 -25 8 -13 17 -24 33 -25 38 0 14 38 7 44 -9z m2336 -69 c19
-19 32 -35 29 -35 -3 0 -20 16 -39 35 -19 19 -32 35 -29 35 3 0 20 -16 39 -35z
m1540 -156 c0 -6 -4 -7 -10 -4 -5 3 -10 11 -10 16 0 6 5 7 10 4 6 -3 10 -11
10 -16z m-2785 -58 c-3 -5 -1 -12 5 -16 18 -11 11 -54 -20 -115 -16 -33 -30
-70 -30 -82 l0 -23 -21 25 c-27 34 -59 96 -59 115 0 8 9 15 19 15 11 0 39 20
63 44 43 45 54 54 43 37z m605 -45 c0 -3 -15 -14 -32 -26 l-33 -22 30 26 c31
27 35 29 35 22z m-1560 -38 c0 -45 47 -140 110 -222 58 -76 54 -76 -37 -3
-108 86 -144 163 -107 226 23 40 34 39 34 -1z m-1199 -17 c23 -24 29 -38 29
-73 0 -56 -27 -108 -68 -132 -48 -27 -103 -10 -127 40 -29 62 -2 132 69 175
43 26 63 24 97 -10z m1997 -15 c3 -12 -1 -17 -10 -14 -7 3 -15 13 -16 22 -3
12 1 17 10 14 7 -3 15 -13 16 -22z m-58 -116 c21 -7 19 -8 -15 -8 -22 0 -51 4
-65 8 -21 7 -19 8 15 8 22 0 51 -4 65 -8z m-877 -85 c16 -25 49 -63 74 -84 40
-36 44 -43 38 -70 -4 -17 -11 -33 -16 -37 -15 -9 -90 61 -136 128 -44 63 -53
92 -30 101 29 12 44 4 70 -38z m865 12 c42 -1 71 -6 69 -12 -5 -14 -56 -42
-92 -51 -27 -7 -29 -6 -16 10 10 12 11 20 3 28 -8 8 -14 4 -23 -15 -7 -15 -17
-27 -22 -27 -14 0 -127 64 -127 72 0 4 30 4 68 2 37 -3 100 -6 140 -7z m1318
-49 c26 -32 54 -86 69 -138 8 -24 7 -24 -28 7 -20 17 -52 37 -71 44 l-36 13 0
63 c0 59 1 63 19 54 10 -6 31 -25 47 -43z m-144 -5 c54 -56 157 -273 130 -273
-5 0 -38 30 -74 68 -47 48 -71 83 -86 125 -22 58 -29 117 -14 117 4 0 24 -17
44 -37z m-5132 -161 c-70 -153 -162 -398 -201 -539 -12 -43 -30 -105 -39 -138
l-17 -60 5 70 c3 51 22 119 69 255 36 102 71 214 79 249 l15 64 -28 30 c-15
16 -41 38 -58 48 l-30 19 41 0 c29 0 52 8 80 28 51 37 104 88 104 99 0 7 41
31 48 28 1 -1 -29 -70 -68 -153z m6900 129 c0 -3 -4 -12 -8 -19 -6 -9 -14 -6
-30 11 l-22 24 30 -5 c16 -2 30 -7 30 -11z m93 -60 c-1 -2 -18 0 -38 3 -45 9
-46 32 -2 51 32 13 32 13 37 -18 3 -18 5 -34 3 -36z m215 -44 c25 -37 23 -44
-10 -24 -12 8 -52 24 -89 36 -57 19 -67 26 -77 54 -7 19 -12 36 -12 40 0 17
167 -78 188 -106z m-7425 66 c-5 -29 -10 -33 -54 -42 -27 -6 -66 -18 -85 -26
-50 -21 -67 -20 -55 3 5 9 38 28 73 41 34 14 76 33 93 42 16 10 30 17 31 16 1
-1 -1 -16 -3 -34z m112 27 c10 -16 -14 -40 -41 -40 -29 0 -40 16 -24 35 14 17
56 20 65 5z m5495 -92 c0 -53 -13 -47 -33 15 -22 71 -22 75 8 47 18 -17 25
-34 25 -62z m542 15 c-10 -16 -22 -35 -24 -43 -5 -13 -7 -12 -13 3 -9 21 19
67 41 67 13 0 12 -4 -4 -27z m-6212 -58 c-36 -8 -81 -13 -100 -13 -28 0 -23 3
25 13 33 7 78 13 100 13 34 0 30 -2 -25 -13z m7305 -50 c-8 -22 -14 -57 -15
-77 0 -20 -5 -49 -11 -65 l-11 -28 -18 50 c-19 54 -15 76 20 125 11 16 20 36
20 46 0 16 2 17 15 4 12 -13 13 -20 0 -55z m-840 18 c30 -30 75 -121 75 -153
0 -16 -10 -12 -64 28 -67 49 -76 68 -60 130 8 29 15 28 49 -5z m-6349 -45 c8
-15 14 -39 14 -54 0 -28 -38 -99 -48 -90 -3 3 -8 51 -11 105 -6 96 -5 99 13
83 10 -9 24 -29 32 -44z m-228 27 l24 -7 -27 -28 c-34 -36 -42 -94 -22 -154 9
-25 12 -48 7 -51 -5 -3 -16 18 -24 47 -33 118 -32 214 2 204 10 -2 28 -7 40
-11z m7646 -7 c16 -23 22 -88 9 -88 -9 0 -93 84 -93 93 0 6 25 14 52 16 9 0
24 -9 32 -21z m-7524 -16 c14 -13 20 -34 22 -82 3 -61 2 -65 -24 -78 -16 -7
-28 -21 -28 -32 0 -13 -5 -17 -15 -14 -17 7 -20 40 -5 49 16 10 12 25 -5 19
-8 -3 -17 -14 -20 -25 -9 -28 -28 -12 -21 17 5 18 2 24 -10 24 -31 0 -9 61 37
103 23 20 43 37 46 37 2 0 12 -8 23 -18z m7380 14 c0 -2 -7 -7 -16 -10 -8 -3
-12 -2 -9 4 6 10 25 14 25 6z m69 -61 c17 -25 27 -45 23 -45 -4 0 -8 -11 -8
-24 -2 -24 -41 -86 -55 -86 -4 0 -24 20 -44 45 -35 43 -36 46 -25 81 13 39 57
87 71 79 4 -3 22 -26 38 -50z m87 -71 c-3 -9 -6 -23 -7 -32 0 -11 -2 -12 -6
-4 -2 6 -9 10 -14 6 -13 -7 -11 3 3 26 15 24 33 27 24 4z m-7466 -68 c0 -22
-135 -126 -164 -126 -16 0 17 31 61 57 24 13 51 38 60 54 18 31 43 39 43 15z
m7430 -5 c0 -5 -7 -12 -16 -15 -14 -5 -15 -4 -4 9 14 17 20 19 20 6z m-7570
-41 c0 -5 -7 -11 -16 -14 -8 -3 -12 -2 -9 4 3 6 -2 11 -12 11 -17 1 -17 2 0 6
15 4 16 7 5 21 -9 12 -6 12 10 -2 12 -11 22 -22 22 -26z m4690 17 c0 -20 -21
-42 -68 -71 -23 -15 -62 -43 -85 -64 -23 -20 -36 -30 -29 -20 8 10 9 17 2 20
-14 4 75 106 114 129 36 22 66 25 66 6z m580 -74 c41 -23 100 -60 130 -82 111
-81 349 -237 434 -285 47 -26 86 -49 86 -51 0 -1 -10 0 -23 2 -31 6 -77 -31
-60 -48 10 -10 15 -9 28 1 24 20 18 -6 -7 -31 -18 -17 -19 -21 -5 -16 21 8 21
11 1 -47 -20 -58 -38 -49 -48 23 -4 27 -15 70 -26 94 l-20 45 -68 6 c-73 7
-132 3 -151 -8 -17 -11 -58 1 -65 19 -3 9 -2 13 4 10 6 -3 10 -1 10 4 0 6 -7
11 -15 11 -9 0 -20 11 -27 25 -6 13 -15 22 -19 19 -5 -3 -6 2 -3 10 3 9 1 16
-5 16 -6 0 -11 7 -11 15 0 15 -29 10 -41 -8 -4 -5 -18 -7 -32 -4 -20 6 -23 12
-20 32 4 17 0 27 -11 31 -23 9 -32 -2 -16 -20 6 -9 10 -21 7 -28 -7 -20 -27
37 -20 60 4 17 -1 20 -41 23 -40 4 -45 2 -40 -13 4 -13 1 -16 -10 -12 -10 4
-16 0 -17 -10 -1 -9 -3 -20 -4 -26 -1 -5 -3 -14 -4 -20 0 -5 -6 -10 -12 -10
-8 0 -9 4 0 13 14 18 4 27 -28 27 -15 0 -21 -3 -14 -8 6 -4 13 -16 15 -26 2
-16 -4 -19 -39 -20 -36 -1 -77 -16 -43 -16 7 0 21 -9 30 -20 12 -13 21 -17 25
-10 3 6 11 8 16 5 14 -9 11 -25 -6 -25 -8 0 -15 -5 -15 -11 0 -5 5 -7 10 -4 6
3 10 1 10 -5 0 -7 7 -9 16 -6 13 5 14 4 6 -7 -14 -16 -6 -27 20 -27 11 0 16
-4 13 -10 -3 -5 -1 -11 4 -11 6 -1 16 -3 21 -4 6 -1 18 -3 28 -4 18 -1 46 -68
31 -73 -14 -5 15 -53 31 -53 21 0 39 -37 27 -53 -7 -9 -5 -11 8 -5 14 5 17 3
12 -10 -5 -12 -1 -17 13 -17 10 0 21 -4 25 -10 3 -5 12 -7 19 -4 8 3 17 1 21
-5 6 -10 -8 -16 -29 -12 -5 1 -16 -1 -24 -4 -13 -5 -12 -8 4 -20 10 -8 28 -15
39 -15 15 0 16 -3 7 -12 -9 -9 -15 -9 -24 0 -10 10 -15 7 -26 -10 -8 -13 -11
-15 -8 -5 3 9 2 17 -2 17 -4 0 -20 23 -36 52 -27 48 -103 135 -136 154 -21 12
-71 109 -62 119 4 5 2 5 -4 2 -6 -4 -19 2 -29 13 -24 26 -118 61 -174 63 -40
2 -47 6 -55 29 -15 43 31 100 125 154 92 53 145 108 161 168 13 51 10 51 138
-21z m-1205 20 c-42 -254 -49 -318 -37 -351 10 -28 8 -30 -35 -51 -25 -12 -47
-21 -48 -19 -1 2 6 26 16 53 9 28 18 43 18 35 1 -10 6 -7 17 8 10 15 14 36 11
60 -5 45 11 147 29 184 19 36 18 78 -1 78 -8 0 -15 -4 -15 -10 0 -5 -7 -10
-15 -10 -9 0 -12 6 -9 15 4 8 1 15 -5 15 -6 0 -11 -4 -11 -10 0 -5 -7 -10 -15
-10 -8 0 -15 6 -15 14 0 8 -8 17 -17 19 -10 3 17 5 59 6 l78 1 -5 -27z m2758
6 l55 -21 42 -122 c74 -215 130 -473 155 -717 l7 -67 -26 5 c-21 4 -25 2 -20
-11 4 -12 0 -16 -15 -16 -15 0 -21 6 -21 23 0 12 -11 48 -24 80 -25 61 -26 74
-2 30 8 -16 15 -22 16 -15 0 6 0 14 0 17 1 2 7 20 15 39 13 29 13 36 0 46 -8
6 -19 9 -25 5 -5 -3 -10 -2 -10 4 0 6 -7 8 -15 5 -9 -4 -13 -16 -11 -33 3 -26
-1 -24 -53 28 -31 31 -54 61 -52 66 2 6 1 7 -4 3 -6 -6 -97 33 -114 48 -2 2
12 21 32 41 21 21 42 54 48 77 14 49 5 218 -16 338 -23 124 -28 168 -22 168 3
0 30 -9 60 -21z m-6737 -88 c-15 -28 -32 -51 -39 -51 -15 0 -41 39 -32 48 12
12 90 60 93 57 2 -2 -8 -26 -22 -54z m7348 27 c41 -33 42 -33 26 -60 -26 -48
-38 -38 -69 60 -5 17 -8 32 -5 32 3 0 24 -15 48 -32z m-2796 -29 c-18 -23 -51
-50 -72 -61 l-39 -20 22 29 c23 29 100 92 114 93 4 0 -7 -18 -25 -41z m-4360
1 c-7 -10 -14 -17 -17 -15 -4 4 18 35 25 35 2 0 -1 -9 -8 -20z m3720 11 c13
-3 -83 -361 -114 -423 -26 -51 -91 -64 -138 -27 -34 26 -33 39 5 75 55 51 69
95 69 219 0 61 4 115 8 121 20 30 107 47 170 35z m-578 -66 c0 -22 3 -51 7
-64 5 -21 4 -22 -15 -12 -37 20 -52 41 -47 67 16 79 14 75 35 62 15 -9 20 -24
20 -53z m4399 -20 c0 -5 -4 -3 -9 5 -5 8 -9 22 -9 30 0 16 17 -16 18 -35z
m-8272 3 c-3 -8 -6 -5 -6 6 -1 11 2 17 5 13 3 -3 4 -12 1 -19z m140 0 c-3 -8
-6 -5 -6 6 -1 11 2 17 5 13 3 -3 4 -12 1 -19z m6863 -54 c0 -20 -18 -26 -40
-14 -14 8 -20 21 -20 47 l0 37 30 -29 c17 -16 30 -34 30 -41z m-6953 14 c-3
-8 -6 -5 -6 6 -1 11 2 17 5 13 3 -3 4 -12 1 -19z m4524 -60 c11 -40 23 -80 25
-89 4 -14 -4 -18 -41 -21 -45 -3 -46 -2 -41 22 3 14 11 55 17 93 7 37 13 67
15 67 2 0 13 -33 25 -72z m3399 63 c0 -5 -8 -12 -18 -15 -10 -4 -23 -18 -29
-34 l-12 -27 6 30 c5 28 27 55 45 55 4 0 8 -4 8 -9z m210 -11 c0 -5 6 -10 13
-10 8 0 18 -16 24 -35 l11 -35 -36 1 c-21 1 -29 3 -19 6 20 5 18 24 -3 31 -8
3 -10 0 -5 -8 5 -8 4 -11 -2 -7 -12 7 -5 67 8 67 5 0 9 -4 9 -10z m97 -12 c-3
-8 -6 -5 -6 6 -1 11 2 17 5 13 3 -3 4 -12 1 -19z m-7787 -25 c0 -6 -8 -10 -17
-8 -10 2 -21 4 -25 4 -5 1 -8 6 -8 12 0 5 5 7 10 4 6 -3 13 1 16 10 6 13 8 14
15 3 5 -7 9 -18 9 -25z m7580 -10 c17 -26 30 -50 30 -54 0 -4 -16 -5 -35 -2
-45 7 -45 -3 0 -21 39 -17 51 -46 41 -100 -13 -66 -57 -65 -99 1 -40 62 -42
87 -7 125 21 22 30 43 30 65 0 18 2 33 5 33 3 0 19 -21 35 -47z m-7956 3 c-3
-15 -8 -25 -11 -23 -2 3 -1 17 3 31 3 15 8 25 11 23 2 -3 1 -17 -3 -31z m7873
12 c-3 -8 -6 -5 -6 6 -1 11 2 17 5 13 3 -3 4 -12 1 -19z m-7959 -46 c-6 -29
-13 -50 -16 -47 -2 2 1 27 8 55 7 28 14 49 16 47 3 -2 -1 -27 -8 -55z m5643
45 c-6 -8 -8 -16 -5 -20 3 -3 -2 -4 -12 -3 -10 2 -20 9 -22 17 -3 11 -2 12 6
1 7 -11 10 -11 15 2 4 9 12 16 18 16 8 0 9 -4 0 -13z m-1833 -16 c42 -22 101
-78 67 -64 -39 16 -105 58 -110 71 -6 16 -1 15 43 -7z m-1004 -22 c38 -30 34
-65 -30 -214 -136 -318 -215 -601 -254 -907 -12 -100 -35 -156 -66 -164 -48
-12 -60 4 -90 111 -14 50 -49 353 -60 515 -12 173 44 312 186 459 49 51 90 96
90 100 0 15 112 103 137 107 15 3 30 7 32 10 9 9 29 3 55 -17z m1613 -1 c-3
-8 -6 -5 -6 6 -1 11 2 17 5 13 3 -3 4 -12 1 -19z m-4019 -1 c14 4 14 3 2 -5
-16 -12 -30 -7 -29 11 0 9 2 9 5 0 3 -7 13 -9 22 -6z m-461 -19 c-3 -8 -6 -5
-6 6 -1 11 2 17 5 13 3 -3 4 -12 1 -19z m505 0 c-7 -7 -12 -8 -12 -2 0 14 12
26 19 19 2 -3 -1 -11 -7 -17z m-106 -15 c-4 -10 -4 -14 0 -10 8 8 44 -21 44
-35 0 -5 -11 -1 -25 8 -33 21 -32 4 1 -30 24 -23 25 -28 14 -55 -8 -21 -17
-28 -28 -24 -11 5 -14 2 -9 -9 9 -24 -3 -29 -29 -11 -28 18 -59 66 -68 106 -6
24 -2 29 31 45 21 9 40 20 41 25 2 4 11 7 19 7 10 0 13 -6 9 -17z m5488 -9 c5
-14 4 -15 -9 -4 -17 14 -19 20 -6 20 5 0 12 -7 15 -16z m-5897 -16 c-3 -8 -6
-5 -6 6 -1 11 2 17 5 13 3 -3 4 -12 1 -19z m3124 -26 c39 -44 79 -127 79 -164
0 -15 -18 -60 -40 -100 -80 -148 -159 -315 -190 -404 -17 -50 -40 -106 -51
-123 -17 -28 -22 -30 -40 -20 -20 10 -21 17 -17 88 5 68 69 317 122 471 l16
45 -20 -25 c-38 -48 -120 -219 -156 -324 -42 -126 -68 -299 -83 -541 -16 -249
-25 -304 -48 -281 -12 12 -14 335 -2 481 25 328 69 511 168 710 63 128 117
200 164 220 40 17 61 9 98 -33z m2594 28 c-3 -5 -12 -10 -20 -10 -8 0 -17 5
-20 10 -4 6 5 10 20 10 15 0 24 -4 20 -10z m2632 -22 c-3 -7 -5 -2 -5 12 0 14
2 19 5 13 2 -7 2 -19 0 -25z m-8300 -25 c-3 -10 -5 -4 -5 12 0 17 2 24 5 18 2
-7 2 -21 0 -30z m-60 5 c-3 -8 -6 -5 -6 6 -1 11 2 17 5 13 3 -3 4 -12 1 -19z
m8370 -20 c-3 -8 -6 -5 -6 6 -1 11 2 17 5 13 3 -3 4 -12 1 -19z m-8240 -10
c-3 -8 -6 -5 -6 6 -1 11 2 17 5 13 3 -3 4 -12 1 -19z m450 -20 c-3 -7 -5 -2
-5 12 0 14 2 19 5 13 2 -7 2 -19 0 -25z m80 10 c-3 -8 -6 -5 -6 6 -1 11 2 17
5 13 3 -3 4 -12 1 -19z m4004 -8 c4 -14 7 -70 8 -125 0 -86 -3 -111 -29 -183
-16 -45 -40 -96 -54 -113 -14 -17 -26 -35 -26 -40 0 -5 -6 -9 -14 -9 -8 0 -18
-10 -22 -22 -16 -51 -46 -78 -85 -78 -26 0 -45 -7 -58 -21 l-20 -21 -26 21
c-20 15 -32 18 -45 11 -14 -7 -28 -2 -61 24 -24 18 -54 38 -66 45 -13 6 -23
20 -23 29 0 10 -22 35 -49 55 -78 59 -78 60 -43 114 39 60 62 114 70 166 4 22
12 42 17 44 6 1 23 -20 38 -48 33 -59 96 -95 147 -84 39 8 39 25 1 25 -42 0
-72 13 -104 46 -44 43 -57 76 -16 38 89 -82 154 -72 259 41 46 50 149 117 174
113 12 -2 23 -14 27 -28z m-4614 -22 c-3 -7 -5 -2 -5 12 0 14 2 19 5 13 2 -7
2 -19 0 -25z m6137 20 c-3 -4 -14 -8 -24 -8 -10 0 -21 4 -24 8 -3 5 8 9 24 9
16 0 27 -4 24 -9z m2193 -20 c-3 -7 -5 -2 -5 12 0 14 2 19 5 13 2 -7 2 -19 0
-25z m-8390 0 c-3 -8 -6 -5 -6 6 -1 11 2 17 5 13 3 -3 4 -12 1 -19z m130 -10
c-3 -7 -5 -2 -5 12 0 14 2 19 5 13 2 -7 2 -19 0 -25z m530 0 c-3 -8 -6 -5 -6
6 -1 11 2 17 5 13 3 -3 4 -12 1 -19z m-101 -175 c-14 -98 -31 -241 -37 -318
-15 -184 -6 -631 16 -784 9 -62 14 -116 11 -119 -4 -3 -6 2 -6 12 0 9 -7 30
-15 46 -12 23 -22 30 -45 30 -17 0 -30 -2 -30 -5 0 -3 14 -30 31 -61 17 -30
30 -57 27 -59 -2 -2 -26 15 -54 39 -27 23 -69 54 -92 68 -52 31 -45 38 43 46
l63 5 4 86 c3 58 0 91 -8 101 -21 26 -27 62 -13 71 11 6 10 12 -4 27 -16 18
-16 22 18 86 34 65 35 71 35 179 0 104 -2 116 -31 177 -23 49 -29 74 -25 100
3 19 0 63 -6 97 -6 35 -8 66 -5 70 4 3 18 1 31 -5 24 -11 25 -9 35 41 34 164
55 246 63 241 4 -3 8 0 8 7 0 7 3 10 6 6 3 -3 -6 -86 -20 -184z m5713 144 c26
-54 27 -89 1 -112 -20 -18 -20 -19 46 -56 l67 -37 -42 -30 c-76 -55 -201 -67
-284 -27 -90 42 -128 184 -67 245 25 25 115 28 148 4 30 -21 28 -31 -7 -39
-33 -7 -56 -29 -46 -45 10 -16 91 -12 109 6 23 22 20 60 -6 84 -23 21 -23 21
7 38 36 20 53 13 74 -31z m-6222 -9 c-3 -7 -5 -2 -5 12 0 14 2 19 5 13 2 -7 2
-19 0 -25z m-60 -10 c-3 -7 -5 -2 -5 12 0 14 2 19 5 13 2 -7 2 -19 0 -25z
m660 10 c-3 -8 -6 -5 -6 6 -1 11 2 17 5 13 3 -3 4 -12 1 -19z m5902 -4 c14
-12 -19 -1 -35 12 -18 14 -18 14 6 3 14 -6 27 -13 29 -15z m1848 -6 c-3 -7 -5
-2 -5 12 0 14 2 19 5 13 2 -7 2 -19 0 -25z m-8280 0 c-3 -8 -6 -5 -6 6 -1 11
2 17 5 13 3 -3 4 -12 1 -19z m112 -62 c12 -29 16 -44 8 -37 -10 8 -22 3 -50
-23 -27 -25 -37 -29 -37 -17 0 27 43 142 51 134 4 -5 16 -30 28 -57z m-195 -5
c-4 -28 -11 -51 -16 -51 -6 0 -7 7 -4 16 3 9 9 34 12 55 10 58 16 41 8 -20z
m4726 33 c0 -8 -4 -14 -9 -14 -11 0 -22 26 -14 34 9 9 23 -3 23 -20z m1845 17
c3 -5 0 -13 -6 -17 -7 -4 -9 -3 -5 4 3 5 0 13 -6 15 -9 4 -10 6 -1 6 6 1 14
-3 18 -8z m-6628 -38 c-3 -10 -5 -4 -5 12 0 17 2 24 5 18 2 -7 2 -21 0 -30z
m8430 0 c-3 -10 -5 -4 -5 12 0 17 2 24 5 18 2 -7 2 -21 0 -30z m-7770 -10 c-3
-10 -5 -4 -5 12 0 17 2 24 5 18 2 -7 2 -21 0 -30z m-177 13 c0 -2 -8 -10 -17
-17 -16 -13 -17 -12 -4 4 13 16 21 21 21 13z m5457 -28 c-3 -8 -6 -5 -6 6 -1
11 2 17 5 13 3 -3 4 -12 1 -19z m-5950 -45 c-3 -10 -5 -2 -5 17 0 19 2 27 5
18 2 -10 2 -26 0 -35z m6670 41 c-3 -3 -12 -4 -19 -1 -8 3 -5 6 6 6 11 1 17
-2 13 -5z m1780 -31 c-3 -10 -5 -4 -5 12 0 17 2 24 5 18 2 -7 2 -21 0 -30z
m-7790 -5 c-3 -7 -5 -2 -5 12 0 14 2 19 5 13 2 -7 2 -19 0 -25z m-178 -5 c-13
-36 -29 -54 -40 -47 -8 4 36 74 47 74 2 0 -1 -12 -7 -27z m6446 2 c17 -7 25
-14 19 -14 -6 -1 -29 -13 -50 -27 l-39 -26 25 27 c24 26 25 27 6 41 -26 18 -2
18 39 -1z m-6606 -54 c14 -19 21 -32 14 -28 -18 11 -42 -3 -58 -34 -34 -65 -5
-131 80 -186 88 -57 97 -65 110 -97 19 -47 28 -106 15 -106 -5 0 -10 7 -10 17
0 24 -46 81 -80 98 -16 8 -45 15 -65 15 -36 0 -108 -30 -120 -50 -4 -6 -17 5
-31 25 -27 41 -30 83 -13 200 10 68 16 81 51 118 22 23 47 53 56 66 12 17 17
20 21 10 2 -8 16 -30 30 -48z m8068 -53 c22 -33 25 -50 30 -157 5 -109 4 -121
-11 -121 -10 0 -21 -12 -27 -29 l-10 -29 -26 24 c-32 30 -95 48 -139 40 -43
-9 -90 -63 -97 -113 -7 -50 -5 -83 5 -77 4 3 8 1 8 -5 0 -6 -9 -15 -20 -21
-28 -15 -34 5 -27 82 9 97 39 144 135 208 45 30 88 64 97 75 22 30 18 70 -10
103 -27 32 -33 79 -14 115 12 20 13 20 46 -18 19 -22 46 -57 60 -77z m-3612
92 c3 -5 1 -10 -4 -10 -6 0 -11 5 -11 10 0 6 2 10 4 10 3 0 8 -4 11 -10z
m2298 3 c-22 -8 -14 -25 10 -18 20 5 20 5 -3 -9 -28 -17 -68 -20 -89 -7 -9 6
-1 13 30 24 40 14 81 22 52 10z m-7025 -54 c-3 -33 -4 -33 -8 8 -3 23 -2 39 3
34 5 -5 7 -24 5 -42z m8409 19 c-3 -7 -5 -2 -5 12 0 14 2 19 5 13 2 -7 2 -19
0 -25z m-7810 -10 c-3 -7 -5 -2 -5 12 0 14 2 19 5 13 2 -7 2 -19 0 -25z m-660
-30 c-2 -13 -4 -5 -4 17 -1 22 1 32 4 23 2 -10 2 -28 0 -40z m5997 16 c3 -8 2
-12 -4 -9 -6 3 -10 10 -10 16 0 14 7 11 14 -7z m970 0 c14 -5 12 -11 -9 -36
-28 -33 -51 -104 -61 -192 -6 -55 -6 -58 14 -52 56 18 146 25 265 19 l132 -6
34 28 c36 31 63 85 75 149 l7 39 25 -39 c13 -21 33 -70 45 -108 38 -120 12
-231 -75 -324 -140 -150 -392 -145 -531 10 -122 135 -115 364 14 481 45 41 43
40 65 31z m-6317 -56 c-3 -7 -5 -2 -5 12 0 14 2 19 5 13 2 -7 2 -19 0 -25z
m-603 -52 c-4 -37 -9 -64 -12 -62 -2 3 -1 35 3 71 4 37 9 65 11 62 3 -2 2 -34
-2 -71z m-57 2 c-2 -13 -4 -5 -4 17 -1 22 1 32 4 23 2 -10 2 -28 0 -40z m3587
11 c14 -28 12 -41 -35 -232 -97 -393 -199 -739 -325 -1102 -47 -133 -50 -140
-76 -140 -30 -1 -30 2 -3 95 55 187 114 413 165 630 33 140 83 320 111 400 28
80 69 200 92 267 22 67 44 120 48 117 4 -2 15 -18 23 -35z m3647 31 c31 0 39
-4 38 -17 0 -11 -3 -13 -6 -5 -5 12 -33 17 -33 5 0 -3 7 -14 16 -24 26 -29 12
-36 -38 -21 -44 12 -48 16 -48 44 0 23 4 29 16 24 9 -3 33 -6 55 -6z m-101
-85 l0 -55 -50 0 -50 0 0 39 c0 42 11 57 50 64 50 9 50 9 50 -48z m-6483 -17
c-2 -13 -4 -3 -4 22 0 25 2 35 4 23 2 -13 2 -33 0 -45z m4123 28 c0 -27 -18
-46 -42 -46 -26 0 -32 24 -13 53 20 31 55 26 55 -7z m2240 -26 c0 -25 -5 -40
-12 -40 -7 0 -23 -3 -36 -6 -21 -6 -22 -5 -12 22 12 32 38 64 52 64 4 0 8 -18
8 -40z m-7023 -57 c-2 -16 -4 -3 -4 27 0 30 2 43 4 28 2 -16 2 -40 0 -55z
m7231 62 c15 -4 22 -14 22 -31 0 -23 -2 -24 -42 -18 -24 4 -44 7 -45 8 -1 1 1
14 4 29 4 19 10 26 22 23 9 -2 26 -7 39 -11z m-3852 -27 c21 -40 18 -67 -41
-333 -73 -333 -130 -520 -194 -641 -32 -59 -81 -107 -95 -93 -3 3 6 52 19 109
32 135 30 146 -5 40 l-28 -85 -1 47 c-3 159 91 533 204 816 33 82 93 172 116
172 4 0 16 -14 25 -32z m774 2 c26 -26 25 -33 -8 -52 -27 -16 -29 -16 -29 0 0
9 6 24 14 34 10 11 11 18 4 23 -6 3 -11 2 -11 -3 0 -6 -8 -9 -17 -8 -10 0 -17
-5 -15 -12 1 -8 -2 -11 -8 -7 -8 5 -6 13 6 26 22 24 39 24 64 -1z m-4023 -77
c-2 -16 -4 -5 -4 22 0 28 2 40 4 28 2 -13 2 -35 0 -50z m4577 38 c15 -17 15
-20 -2 -40 l-18 -23 -24 20 c-24 20 -25 20 -6 41 23 26 28 26 50 2z m-4057
-58 c-2 -16 -4 -5 -4 22 0 28 2 40 4 28 2 -13 2 -35 0 -50z m3010 25 c-3 -8
-6 -5 -6 6 -1 11 2 17 5 13 3 -3 4 -12 1 -19z m-3607 -44 c0 -30 -3 -53 -7
-51 -8 5 -5 107 3 107 2 0 4 -25 4 -56z m4188 -1 c2 -10 -8 -29 -22 -42 l-24
-22 -26 34 c-14 19 -26 37 -26 40 0 4 12 13 28 21 22 12 30 12 47 2 11 -7 21
-22 23 -33z m-4251 -95 c-2 -24 -4 -5 -4 42 0 47 2 66 4 43 2 -24 2 -62 0 -85z
m3628 -24 c-51 -181 -117 -381 -122 -368 -2 6 16 72 40 145 24 74 59 187 78
251 18 65 35 114 37 109 2 -5 -13 -67 -33 -137z m1025 111 c19 -20 21 -27 10
-40 -27 -32 -67 -4 -56 40 8 31 16 31 46 0z m291 -48 c-13 -13 -15 31 -3 60 5
14 8 10 10 -16 2 -18 -1 -38 -7 -44z m2726 41 c-3 -8 -6 -5 -6 6 -1 11 2 17 5
13 3 -3 4 -12 1 -19z m-2550 -20 c-3 -8 -6 -5 -6 6 -1 11 2 17 5 13 3 -3 4
-12 1 -19z m3540 0 c-3 -8 -6 -5 -6 6 -1 11 2 17 5 13 3 -3 4 -12 1 -19z
m-8448 -147 c-5 -178 -24 -193 -28 -21 -3 134 3 180 21 162 6 -6 9 -62 7 -141z
m4122 139 c39 -21 11 -88 -32 -77 -47 13 -52 21 -35 56 17 33 34 38 67 21z
m977 -23 c67 -69 123 -305 129 -547 6 -194 -5 -203 -37 -30 -24 131 -54 254
-111 454 -47 166 -44 188 19 123z m-748 -3 c11 -28 -2 -63 -23 -65 -41 -4 -57
10 -57 52 0 33 7 39 42 39 21 0 31 -6 38 -26z m-3913 -261 c-1 -54 -3 -12 -3
92 0 105 2 149 3 98 2 -51 2 -136 0 -190z m7711 248 c43 -23 55 -55 50 -136
-4 -89 -22 -114 -90 -125 -58 -8 -76 -2 -48 17 17 12 19 18 9 29 -14 18 -50
18 -73 1 -27 -20 -7 -50 54 -80 35 -18 45 -27 34 -31 -51 -20 -114 10 -141 67
-39 79 -39 83 9 92 24 4 64 6 90 5 39 -1 52 3 73 24 32 32 32 60 0 91 -28 29
-34 30 -60 12 -23 -17 -12 -37 21 -37 19 0 25 -5 22 -17 -2 -13 -14 -19 -41
-21 -51 -4 -87 19 -87 57 0 67 97 95 178 52z m-7930 5 c15 -8 36 -24 46 -35
20 -22 20 -22 -5 -46 -18 -18 -40 -26 -84 -31 l-60 -7 19 21 c10 12 27 24 37
27 23 8 24 28 4 45 -13 11 -20 9 -39 -10 -39 -36 -51 -75 -33 -104 19 -28 73
-41 112 -26 19 7 38 7 66 -1 35 -11 38 -15 32 -38 -9 -39 -22 -63 -56 -98 -29
-30 -36 -33 -94 -33 -66 0 -86 -16 -33 -27 42 -8 44 -16 15 -59 -45 -66 -26
-156 39 -188 l30 -14 -36 -18 c-36 -17 -37 -17 -82 10 -25 14 -48 31 -51 36
-3 5 8 41 25 81 29 69 39 113 21 93 -4 -5 -21 -42 -36 -81 -14 -40 -29 -73
-31 -73 -2 0 -13 15 -24 33 -31 50 -28 136 6 177 37 43 74 60 116 54 43 -7 88
14 108 51 8 15 28 33 45 40 27 11 28 13 11 20 -11 5 -39 3 -63 -3 -24 -7 -57
-12 -74 -12 -17 0 -28 -4 -24 -10 3 -5 22 -10 42 -10 30 0 34 -2 23 -15 -15
-18 -83 -19 -123 -2 -28 12 -29 14 -32 104 -3 81 -1 95 17 118 11 15 30 31 42
35 33 13 94 11 124 -4z m8041 -79 c-1 -94 -6 -85 -11 20 -2 39 0 69 4 67 4 -3
7 -42 7 -87z m188 61 c-3 -8 -6 -5 -6 6 -1 11 2 17 5 13 3 -3 4 -12 1 -19z
m-3493 -15 c12 15 16 6 34 -75 28 -121 49 -242 62 -353 5 -49 19 -157 30 -240
23 -177 26 -468 4 -489 -6 -7 -14 -24 -16 -37 -2 -13 -7 80 -11 206 -4 144
-14 277 -26 355 -23 148 -35 277 -22 240 8 -23 9 -24 10 -3 1 12 -5 28 -13 35
-17 18 -30 74 -20 90 15 23 12 53 -7 71 -19 18 -27 63 -9 52 6 -3 7 1 4 9 -3
9 -11 13 -17 9 -6 -4 -8 2 -5 15 4 12 3 22 -2 22 -4 0 -11 17 -15 38 -3 20 -8
48 -11 62 l-4 25 10 -25 c11 -23 12 -24 24 -7z m-454 -9 c-19 -50 -31 -63
-108 -122 -70 -54 -83 -60 -137 -64 -46 -4 -66 -1 -90 13 -16 11 -38 19 -47
19 -9 0 -30 12 -46 28 -16 15 -50 44 -76 65 -25 21 -46 44 -46 50 0 8 3 8 8 2
4 -6 52 -33 107 -60 89 -45 108 -50 177 -54 l77 -3 91 76 c50 42 93 76 95 76
3 0 0 -12 -5 -26z m3743 -109 c3 -68 1 -111 -3 -100 -8 19 -14 233 -6 224 2
-2 6 -58 9 -124z m-4639 56 c31 -70 34 -103 4 -46 -33 63 -49 105 -39 105 4 0
20 -26 35 -59z m1082 11 c-20 -20 -22 -1 -3 28 10 18 12 18 15 4 2 -9 -3 -24
-12 -32z m1952 -31 c7 -11 11 -21 8 -21 -9 0 -43 55 -50 80 -5 21 -4 20 11 -6
10 -18 24 -41 31 -53z m-2030 37 c17 -17 15 -52 -6 -78 -16 -20 -19 -21 -31
-6 -14 17 -18 67 -6 86 8 14 28 13 43 -2z m1963 -45 c32 -31 59 -62 59 -70 0
-7 -7 -25 -16 -39 -29 -43 -4 -41 37 4 l40 42 37 -29 c20 -16 56 -37 80 -46
l42 -17 -43 -28 c-24 -15 -49 -41 -56 -58 -13 -32 -19 -35 -78 -47 -27 -5 -33
-3 -33 10 0 39 -32 81 -85 113 -71 43 -95 77 -95 137 0 28 -4 44 -10 40 -16
-10 -12 12 6 29 27 27 54 18 115 -41z m-6251 2 c0 -33 -1 -34 -25 -23 -14 6
-25 14 -25 18 0 6 38 37 48 39 1 1 2 -15 2 -34z m4467 13 c-3 -8 -6 -5 -6 6
-1 11 2 17 5 13 3 -3 4 -12 1 -19z m-1187 -78 c6 -11 8 -20 6 -20 -3 0 -10 9
-16 20 -6 11 -8 20 -6 20 3 0 10 -9 16 -20z m-1360 -397 c0 -36 -28 -27 -50
17 -38 74 -59 138 -74 223 -16 94 -13 135 10 116 11 -9 14 -5 15 22 0 36 99
-340 99 -378z m2188 377 c-13 -21 -28 -27 -28 -10 0 5 8 14 18 19 23 14 24 14
10 -9z m102 -5 c33 -17 38 -40 14 -73 -12 -17 -19 -20 -32 -12 -41 23 -42 25
-31 63 11 42 10 42 49 22z m-650 -31 c0 -8 3 -13 8 -12 4 2 40 -31 81 -71 101
-100 138 -115 254 -106 l89 7 -40 -59 c-50 -74 -96 -123 -114 -123 -24 0 -140
128 -205 225 -71 106 -115 187 -89 166 9 -7 16 -20 16 -27z m-250 -19 c0 -5
-5 -3 -10 5 -5 8 -10 20 -10 25 0 6 5 3 10 -5 5 -8 10 -19 10 -25z m1074 9
c-10 -15 -13 -29 -8 -32 20 -15 7 -38 -34 -60 -24 -13 -46 -22 -47 -20 -4 4
94 138 101 138 2 0 -3 -12 -12 -26z m1392 -39 c56 -57 88 -109 113 -185 28
-86 27 -104 -14 -148 -20 -20 -35 -32 -34 -27 1 6 -3 23 -10 39 -10 24 -9 32
5 47 32 35 -1 161 -43 167 -20 3 -21 -1 -22 -79 -1 -50 4 -88 11 -98 7 -9 -1
-4 -18 11 -27 25 -30 26 -41 10 -12 -16 -12 -16 -7 1 6 16 -9 199 -22 290 -6
38 -5 38 16 27 13 -7 42 -31 66 -55z m1825 -96 c-12 -22 -13 -33 -5 -46 9 -14
6 -21 -10 -34 -19 -15 -20 -21 -9 -48 6 -18 7 -33 2 -37 -5 -3 -9 -14 -9 -24
0 -10 -10 -22 -21 -25 -18 -6 -21 -13 -16 -46 3 -25 0 -44 -10 -56 -13 -17
-14 -15 -9 13 3 17 10 100 16 185 6 85 13 182 16 216 l6 62 33 -65 c32 -64 32
-67 16 -95z m-3773 139 c14 -14 15 -57 2 -78 -6 -10 -8 -4 -4 21 5 30 2 39
-17 53 -16 11 -19 16 -8 16 8 0 20 -5 27 -12z m242 -7 c5 -11 7 -22 2 -25 -4
-2 -12 7 -19 20 -13 28 2 33 17 5z m1525 -9 c-3 -3 -11 0 -18 7 -9 10 -8 11 6
5 10 -3 15 -9 12 -12z m-5887 0 c9 -6 4 -14 -18 -30 l-30 -23 0 25 c0 21 10
33 30 35 3 0 11 -3 18 -7z m8199 -19 c16 -34 11 -39 -21 -18 -20 13 -23 19
-13 30 17 20 20 18 34 -12z m-4547 -77 c0 -5 -11 1 -24 13 -14 13 -22 30 -19
38 4 11 10 7 24 -14 11 -15 19 -32 19 -37z m4553 -5 c26 -24 27 -29 21 -81 -4
-30 -10 -64 -14 -75 -7 -18 -10 -16 -30 18 -23 38 -43 50 -34 20 3 -10 -2 -6
-11 10 -8 15 -20 27 -26 27 -10 0 -9 -13 6 -67 3 -10 -3 0 -13 22 -16 33 -20
37 -24 20 -5 -16 -6 -15 -7 7 0 14 -12 39 -25 55 l-24 28 37 0 c33 0 36 3 39
30 7 54 36 50 105 -14z m-8446 -43 c-2 -18 -4 -4 -4 32 0 36 2 50 4 33 2 -18
2 -48 0 -65z m154 -105 c6 -18 30 -60 55 -92 24 -32 44 -65 44 -72 0 -8 -16
-39 -35 -69 -19 -30 -35 -60 -35 -67 0 -7 -5 -13 -11 -13 -7 0 -10 15 -7 39 2
22 0 37 -4 35 -5 -3 -8 1 -8 8 0 7 -7 85 -15 173 -16 172 -19 295 -4 165 5
-41 14 -89 20 -107z m3812 27 c33 -47 73 -100 89 -118 15 -18 48 -63 73 -101
46 -70 144 -171 166 -171 7 0 -5 -15 -25 -32 -45 -39 -73 -122 -50 -146 17
-17 18 -23 2 -20 -7 2 -12 -4 -10 -12 3 -11 -1 -11 -16 3 -10 9 -29 17 -41 17
-29 0 -71 -43 -71 -73 l0 -25 -122 40 c-68 22 -143 43 -168 45 -65 7 -164 84
-201 156 -12 22 -24 35 -31 31 -17 -11 -1 60 33 146 17 41 68 131 114 200 46
69 91 144 101 166 l18 42 39 -32 c22 -17 67 -69 100 -116z m728 134 c11 -13
11 -20 -2 -42 -18 -32 -46 -35 -65 -7 -28 42 35 88 67 49z m-603 -6 c18 -18
14 -46 -7 -58 -27 -14 -31 -13 -31 9 0 11 -4 22 -10 26 -14 9 0 35 19 35 9 0
22 -5 29 -12z m939 -108 c40 -63 89 -149 110 -190 33 -66 38 -85 41 -164 5
-99 -12 -222 -36 -272 -11 -24 -31 -41 -76 -62 -106 -50 -132 -56 -170 -38
-19 9 -41 16 -49 16 -9 0 -19 5 -22 10 -8 12 1 13 43 1 65 -19 29 5 -50 33
-90 32 -104 43 -188 156 -30 40 -65 83 -77 95 -25 24 -24 26 37 121 13 21 32
59 40 84 21 61 96 191 139 242 38 45 121 89 161 85 20 -2 39 -24 97 -117z
m1138 110 c-3 -5 -12 -10 -18 -10 -7 0 -6 4 3 10 19 12 23 12 15 0z m1500 -99
c-7 -69 -8 -71 -34 -70 -14 0 -35 4 -46 9 -19 8 -19 9 0 9 14 1 16 4 8 12 -9
9 -8 18 4 35 14 22 14 24 -3 25 -67 4 -69 4 -67 -14 0 -11 -4 -16 -11 -14 -7
3 -13 -1 -13 -8 0 -8 3 -13 6 -12 3 1 8 -2 11 -8 3 -5 -10 -14 -27 -20 -18 -5
-33 -13 -33 -17 0 -4 -7 -5 -15 -2 -8 4 -15 1 -15 -6 0 -10 -3 -10 -15 0 -12
10 -15 9 -16 -6 0 -11 -3 -14 -5 -8 -3 7 -15 9 -26 6 -18 -4 -19 -6 -5 -11 9
-3 -30 -6 -86 -7 -91 0 -110 -4 -180 -32 -44 -18 -107 -49 -140 -69 -34 -20
-67 -36 -74 -36 -7 0 -11 -3 -10 -7 1 -4 -14 -20 -33 -36 -24 -19 -29 -21 -16
-6 11 12 14 22 8 22 -7 0 -10 12 -8 29 3 30 3 30 -23 13 -36 -22 -15 -1 42 42
55 41 67 44 60 16 -3 -12 -2 -20 3 -19 21 3 28 -2 14 -11 -8 -5 -12 -11 -10
-14 3 -2 16 4 30 16 14 11 19 17 12 13 -14 -7 -38 14 -37 34 0 24 205 106 420
166 61 18 327 65 334 59 2 -1 0 -35 -4 -73z m-1495 59 c0 -5 -4 -10 -10 -10
-5 0 -10 5 -10 10 0 6 5 10 10 10 6 0 10 -4 10 -10z m-5690 -40 c6 -11 7 -20
2 -20 -10 0 -32 21 -32 32 0 16 19 8 30 -12z m197 -2 c-3 -8 -6 -5 -6 6 -1 11
2 17 5 13 3 -3 4 -12 1 -19z m7527 16 c9 -3 14 -10 11 -14 -3 -4 3 -14 12 -21
14 -12 16 -12 8 1 -8 13 -7 13 8 1 9 -7 17 -19 17 -25 0 -6 4 -17 9 -25 8 -12
12 -13 26 -1 14 11 16 11 13 -1 -2 -8 3 -13 12 -11 10 1 9 -3 -5 -14 -20 -16
-20 -16 4 -9 17 5 22 4 18 -6 -2 -8 -10 -13 -16 -11 -6 1 -11 -5 -11 -13 0 -8
6 -14 13 -12 6 1 11 -4 9 -11 -1 -8 2 -11 7 -8 5 4 12 0 15 -6 3 -7 3 -1 1 15
-4 33 3 35 14 5 7 -19 3 -26 -18 -40 -28 -19 -97 -24 -121 -8 -12 8 -9 10 12
10 15 0 30 5 33 10 4 6 9 8 13 6 4 -2 7 12 7 31 0 41 -16 51 -77 52 -29 1 -38
5 -38 19 0 14 -2 15 -10 2 -8 -12 -10 -11 -10 8 0 15 6 22 20 22 11 0 20 5 20
10 0 6 -12 10 -27 10 -25 0 -26 0 -8 20 21 23 18 22 39 14z m-4709 -34 c-4
-12 -9 -19 -12 -17 -3 3 -2 15 2 27 4 12 9 19 12 17 3 -3 2 -15 -2 -27z
m-3030 -15 c33 -29 37 -36 25 -45 -8 -5 -27 -10 -42 -10 -14 0 -33 -3 -42 -6
-24 -9 -31 23 -13 62 9 19 20 34 24 34 5 0 26 -16 48 -35z m3700 -9 c8 -24 6
-31 -14 -47 -29 -23 -31 -21 -41 30 -5 27 -3 42 4 45 23 10 41 0 51 -28z m453
-9 c5 -26 -18 -77 -34 -77 -13 0 -44 37 -44 52 0 5 9 17 21 29 24 24 52 22 57
-4z m3369 -39 c-2 -13 -4 -3 -4 22 0 25 2 35 4 23 2 -13 2 -33 0 -45z m-6614
45 c-7 -2 -21 -2 -30 0 -10 3 -4 5 12 5 17 0 24 -2 18 -5z m-1366 -65 c-2 -13
-4 -5 -4 17 -1 22 1 32 4 23 2 -10 2 -28 0 -40z m3442 -37 c-12 -34 -23 -60
-25 -58 -2 2 6 32 17 66 12 34 23 60 25 58 2 -2 -6 -32 -17 -66z m3351 45 c0
-2 -8 -10 -17 -17 -16 -13 -17 -12 -4 4 13 16 21 21 21 13z m1574 -12 c5 -14
4 -15 -9 -4 -17 14 -19 20 -6 20 5 0 12 -7 15 -16z m-607 -36 c-3 -7 -5 -2 -5
12 0 14 2 19 5 13 2 -7 2 -19 0 -25z m-7700 -15 c-3 -10 -5 -4 -5 12 0 17 2
24 5 18 2 -7 2 -21 0 -30z m793 17 c0 -5 -4 -10 -10 -10 -5 0 -10 5 -10 10 0
6 5 10 10 10 6 0 10 -4 10 -10z m6535 -25 c37 -9 43 -13 23 -14 -16 0 -28 -7
-29 -13 0 -7 -4 -4 -9 7 -5 11 -9 14 -9 7 -1 -7 -13 -24 -28 -37 l-28 -24 25
-2 c14 -1 -6 -5 -43 -10 -145 -19 -233 -90 -226 -183 2 -24 1 -42 -3 -39 -5 2
-8 13 -8 23 0 10 -4 22 -10 25 -5 3 -10 12 -10 18 0 7 4 6 10 -3 8 -13 10 -12
10 3 0 9 -4 17 -9 17 -15 0 -22 33 -10 44 9 8 10 6 5 -9 -5 -14 -4 -17 4 -9 6
6 8 18 4 28 -5 13 -9 14 -20 5 -10 -8 -14 -8 -14 0 0 17 -72 13 -99 -6 -24
-16 -24 -16 -19 11 5 27 5 27 -16 9 -12 -10 -7 -4 12 14 48 45 201 122 275
138 78 17 157 17 222 0z m-2875 -15 c22 -22 25 -42 10 -71 -17 -30 -55 -24
-79 14 l-21 32 26 23 c31 27 39 27 64 2z m-2168 -69 c7 -14 44 -80 82 -146 72
-125 140 -265 132 -272 -2 -2 -38 51 -79 119 -41 68 -93 154 -117 192 -35 58
-81 164 -80 185 1 9 47 -49 62 -78z m-2275 12 c-3 -10 -5 -4 -5 12 0 17 2 24
5 18 2 -7 2 -21 0 -30z m4210 15 c-3 -8 -6 -5 -6 6 -1 11 2 17 5 13 3 -3 4
-12 1 -19z m3925 -1 l38 -13 -33 -16 c-41 -20 -52 -21 -52 -5 0 6 7 13 15 13
33 3 34 5 10 19 -31 18 -25 18 22 2z m-3826 -15 c41 -27 35 -100 -8 -86 -52
16 -75 63 -40 83 20 12 33 13 48 3z m3017 -19 c-7 -2 -19 -2 -25 0 -7 3 -2 5
12 5 14 0 19 -2 13 -5z m914 1 c-3 -3 -12 -4 -19 -1 -8 3 -5 6 6 6 11 1 17 -2
13 -5z m-7452 -22 c-3 -3 -11 0 -18 7 -9 10 -8 11 6 5 10 -3 15 -9 12 -12z
m7289 -1 c3 -4 -4 -17 -17 -27 -22 -19 -22 -19 -4 2 9 11 14 24 10 27 -3 4 -4
7 0 7 3 0 8 -4 11 -9z m-8067 -33 c-3 -7 -5 -2 -5 12 0 14 2 19 5 13 2 -7 2
-19 0 -25z m7242 -15 c-6 -16 -22 -47 -37 -71 -22 -35 -31 -42 -50 -37 -28 7
-71 -13 -52 -25 20 -12 -38 -22 -60 -10 -41 22 -14 107 43 136 46 24 76 32
124 33 42 1 42 1 32 -26z m763 -25 c-8 -8 -9 -4 -5 13 4 13 8 18 11 10 2 -7
-1 -18 -6 -23z m-7606 0 c4 -7 3 -8 -4 -4 -7 4 -12 0 -12 -10 0 -10 -3 -15 -6
-11 -7 6 2 37 10 37 3 0 8 -5 12 -12z m1878 -24 c3 -8 2 -12 -4 -9 -6 3 -10
10 -10 16 0 14 7 11 14 -7z m4581 6 c-28 -12 -37 -12 -30 0 3 6 16 10 28 9 21
0 21 -1 2 -9z m-6486 -51 c11 -12 24 -40 29 -63 5 -22 11 -47 13 -55 2 -7 -5
-15 -15 -17 -10 -1 -23 -9 -27 -16 -6 -8 -9 1 -9 26 0 42 -29 97 -63 121 -18
13 -19 17 -8 24 7 5 10 14 6 21 -11 18 51 -17 74 -41z m56 41 c3 -5 1 -10 -4
-10 -6 0 -11 5 -11 10 0 6 2 10 4 10 3 0 8 -4 11 -10z m320 -20 c-3 -5 -12
-10 -18 -10 -7 0 -6 4 3 10 19 12 23 12 15 0z m-335 -25 c0 -8 -2 -15 -4 -15
-2 0 -6 7 -10 15 -3 8 -1 15 4 15 6 0 10 -7 10 -15z m-96 -36 c43 -51 31 -143
-15 -118 -37 19 -74 121 -52 142 15 15 43 5 67 -24z m7736 11 c0 -5 -2 -10 -4
-10 -3 0 -8 5 -11 10 -3 6 -1 10 4 10 6 0 11 -4 11 -10z m-7551 -46 c6 -21 6
-44 1 -57 -7 -17 -9 -12 -11 28 -1 44 -2 46 -9 20 -6 -23 -8 -25 -9 -8 -1 21
8 53 15 53 2 0 8 -16 13 -36z m3771 27 c0 -5 -6 -14 -14 -20 -11 -9 -11 -17
-2 -36 6 -14 14 -25 19 -25 4 0 7 -5 7 -10 0 -7 -6 -7 -20 0 -29 15 -25 0 11
-43 35 -42 58 -50 33 -11 -16 24 -16 28 5 72 l23 47 19 -24 c10 -13 19 -31 19
-40 0 -19 -27 -63 -68 -111 l-30 -35 -51 52 c-53 55 -62 83 -40 126 21 41 89
86 89 58z m39 -24 c-9 -7 -14 -17 -12 -24 2 -6 -1 -14 -6 -18 -6 -3 -11 0 -11
9 0 27 12 46 29 46 15 -1 15 -2 0 -13z m-39 -17 c0 -5 -2 -10 -4 -10 -3 0 -8
5 -11 10 -3 6 -1 10 4 10 6 0 11 -4 11 -10z m2791 -8 c-18 -2 -37 0 -42 5 -5
5 11 6 34 3 41 -4 41 -5 8 -8z m66 12 c-3 -3 -12 -4 -19 -1 -8 3 -5 6 6 6 11
1 17 -2 13 -5z m-7100 -26 c-3 -8 -6 -5 -6 6 -1 11 2 17 5 13 3 -3 4 -12 1
-19z m540 0 c-3 -8 -6 -5 -6 6 -1 11 2 17 5 13 3 -3 4 -12 1 -19z m2918 -18
c7 -12 -2 -12 -30 0 -19 8 -19 9 2 9 12 1 25 -3 28 -9z m-3448 -22 c-3 -8 -6
-5 -6 6 -1 11 2 17 5 13 3 -3 4 -12 1 -19z m7086 15 c-13 -2 -33 -2 -45 0 -13
2 -3 4 22 4 25 0 35 -2 23 -4z m-6546 -25 c-3 -8 -6 -5 -6 6 -1 11 2 17 5 13
3 -3 4 -12 1 -19z m1327 -23 c174 -50 290 -113 434 -233 l33 -27 -40 -3 c-33
-2 -70 13 -233 97 -209 107 -285 136 -398 147 -75 7 -137 29 -109 38 8 2 21 7
29 10 33 13 198 -4 284 -29z m5169 8 c-13 -2 -35 -2 -50 0 -16 2 -5 4 22 4 28
0 40 -2 28 -4z m-6464 -108 c-2 -17 -27 69 -27 90 0 11 6 -2 14 -30 7 -27 13
-54 13 -60z m3552 48 c13 -16 12 -17 -3 -4 -17 13 -22 21 -14 21 2 0 10 -8 17
-17z m-84 -4 c12 -12 6 -49 -8 -49 -4 0 -11 5 -14 10 -4 6 -11 8 -16 5 -13 -9
-11 19 3 33 15 15 21 15 35 1z m1060 -21 c-3 -8 -6 -5 -6 6 -1 11 2 17 5 13 3
-3 4 -12 1 -19z m-1364 -23 c30 -13 138 -54 239 -90 183 -66 244 -95 220 -103
-6 -2 -40 6 -74 17 -35 11 -119 34 -188 50 -69 16 -158 41 -199 55 -41 14 -85
26 -97 26 -34 0 -39 -19 -7 -25 15 -4 57 -19 93 -34 68 -29 77 -32 355 -107
94 -25 185 -50 202 -55 l33 -10 -23 -32 c-12 -18 -23 -33 -23 -35 -2 -3 -239
36 -439 72 -44 8 -102 26 -130 41 -27 14 -39 23 -25 20 14 -3 43 -8 65 -10
l40 -5 -42 13 c-23 6 -48 18 -55 25 -20 20 -89 14 -148 -14 -30 -15 -49 -29
-42 -31 8 -3 19 0 25 6 16 16 63 14 98 -4 16 -9 55 -40 86 -70 l58 -55 -42
-42 c-36 -36 -44 -40 -58 -28 -8 7 -13 15 -10 18 2 3 11 0 18 -6 15 -13 14
-15 22 58 4 38 3 41 -5 20 -20 -45 -41 -60 -84 -60 -73 0 -76 -13 -18 -65 58
-52 91 -101 102 -151 4 -19 7 -34 6 -34 -2 0 -27 8 -57 19 -91 31 -119 32
-229 12 -107 -20 -178 -32 -148 -24 9 2 19 10 22 18 4 11 -11 13 -82 8 -100
-6 -157 6 -200 42 -36 30 -50 20 -20 -14 18 -21 16 -20 -10 4 -18 16 -30 35
-27 43 2 7 1 11 -4 8 -14 -9 -41 71 -41 122 1 61 28 121 82 174 41 41 54 47
260 111 120 37 266 86 325 107 60 21 111 39 114 39 4 1 31 -10 62 -24z m3277
-5 c-8 -5 -19 -10 -25 -10 -5 0 -3 5 5 10 8 5 20 10 25 10 6 0 3 -5 -5 -10z
m-5143 -42 l58 -22 -80 -12 c-153 -22 -238 -58 -380 -159 l-80 -56 61 58 c55
52 116 89 227 137 36 15 50 36 25 36 -43 0 -197 -65 -267 -111 -19 -13 -32
-18 -28 -12 13 22 148 105 215 134 85 36 166 39 249 7z m-1270 -80 c-3 -7 -5
-2 -5 12 0 14 2 19 5 13 2 -7 2 -19 0 -25z m2448 22 c3 -6 -6 -15 -20 -20 -37
-14 -40 -13 -20 10 20 22 31 25 40 10z m-1140 -39 c29 -7 33 -9 15 -11 -23 -1
-23 -2 -5 -9 11 -5 -18 -6 -66 -3 -71 4 -97 1 -151 -17 -63 -21 -182 -94 -242
-149 -16 -15 -26 -21 -21 -13 6 10 2 12 -16 6 -39 -11 120 102 198 140 68 34
170 63 223 64 14 0 43 -4 65 -8z m-1226 -221 c0 -3 -4 3 -10 13 -13 23 -59
157 -58 171 0 10 68 -172 68 -184z m2227 135 c-67 -87 -79 -158 -47 -266 10
-35 21 -75 24 -87 5 -23 5 -23 -13 -7 -28 26 -60 118 -60 174 0 60 34 152 71
192 38 41 57 36 25 -6z m-101 -31 c-44 -72 -59 -147 -52 -254 7 -111 28 -176
74 -230 35 -41 36 -44 10 -27 -39 25 -45 14 -11 -19 l29 -27 -32 16 c-101 52
-152 220 -119 389 18 91 44 146 86 182 48 40 52 32 15 -30z m1783 -104 c203
-137 288 -209 338 -287 61 -95 166 -285 161 -290 -3 -3 -48 60 -101 140 -87
132 -99 146 -143 165 -26 11 -120 55 -208 98 -87 42 -184 86 -215 96 l-55 18
55 -6 c30 -4 68 -7 83 -7 16 0 24 -3 17 -7 -6 -4 20 -20 60 -38 79 -35 97 -33
20 2 -27 13 -47 25 -45 28 3 3 -16 25 -43 49 -97 90 -78 80 173 -83 51 -33 55
-35 26 -9 -53 46 -255 179 -307 202 -44 18 -46 20 -28 34 10 8 22 15 27 15 4
0 87 -54 185 -120z m-2623 91 l30 -6 -33 -14 c-18 -7 -74 -52 -125 -100 -51
-47 -107 -93 -123 -101 -70 -36 -163 -102 -209 -149 -27 -28 -54 -51 -60 -51
-6 0 -7 3 0 8 6 4 19 17 29 30 19 22 19 22 1 16 -12 -5 -16 -4 -11 4 4 8 2 10
-7 6 -10 -4 -14 2 -14 21 0 35 190 229 273 278 91 55 175 74 249 58z m2405
-53 c0 -14 -8 -18 -36 -18 -25 0 -34 4 -30 13 3 6 9 20 12 29 5 14 10 15 30 6
13 -6 24 -19 24 -30z m-1715 -64 c-38 -145 2 -380 78 -463 14 -16 18 -25 10
-28 -11 -4 -77 -48 -327 -219 -60 -40 -117 -74 -127 -74 -24 0 -80 59 -112
118 -43 79 -56 155 -41 232 36 176 127 330 226 381 40 20 83 26 73 9 -11 -19
10 -10 120 49 60 33 111 58 113 57 1 -2 -4 -29 -13 -62z m-2050 21 c17 -13 26
-24 20 -24 -5 0 -23 11 -40 24 -16 14 -25 25 -20 25 6 0 24 -11 40 -25z m1503
-13 c-139 -154 -229 -408 -283 -797 -8 -60 -35 -200 -60 -310 -26 -110 -58
-253 -72 -317 -14 -65 -30 -118 -35 -118 -4 0 -8 9 -8 21 0 11 -4 18 -9 15
-14 -9 -24 212 -17 383 20 469 62 680 189 941 83 170 140 219 261 220 l68 0
-34 -38z m121 11 c-76 -83 -209 -355 -283 -580 -38 -115 -50 -138 -40 -80 5
25 3 29 -6 17 -34 -44 50 246 112 387 65 151 169 283 221 283 20 0 20 -1 -4
-27z m157 4 c-10 -7 -42 -27 -70 -46 l-51 -34 39 41 c21 23 51 43 65 45 14 2
28 4 31 5 3 0 -3 -5 -14 -11z m1404 -47 c-20 -15 -22 -20 -11 -34 12 -14 11
-16 -7 -16 -36 0 -37 22 -3 52 18 16 36 27 39 23 4 -3 -4 -15 -18 -25z m51
-37 c13 -15 12 -15 -8 -4 -24 12 -29 21 -14 21 5 0 15 -7 22 -17z m362 -29
c172 -38 591 -178 652 -218 28 -19 169 -239 144 -226 -19 11 -44 45 -93 133
-15 26 -37 54 -50 62 -28 19 -379 138 -605 206 -91 27 -167 51 -169 54 -10 10
51 4 121 -11z m-313 -36 c0 -14 -19 1 -31 25 -12 22 -12 22 10 3 11 -11 21
-23 21 -28z m2360 32 c-8 -5 -26 -9 -40 -9 -23 1 -23 2 5 9 43 11 52 11 35 0z
m-2436 -26 c5 -14 4 -15 -9 -4 -17 14 -19 20 -6 20 5 0 12 -7 15 -16z m146
-54 c0 -6 -4 -10 -10 -10 -5 0 -7 -7 -4 -15 4 -8 2 -15 -4 -15 -5 0 -12 7 -16
15 -4 12 -10 13 -30 3 -20 -8 -29 -8 -41 2 -25 21 -18 25 45 27 33 1 60 -2 60
-7z m-2529 -53 c-6 -8 -9 -16 -6 -19 3 -2 -2 -5 -10 -5 -13 0 -13 3 2 19 19
21 31 25 14 5z m4774 -17 c-3 -5 -15 -15 -26 -20 -15 -8 -19 -7 -19 4 0 13 14
21 43 25 5 0 5 -3 2 -9z m-5386 -65 c0 -5 -6 1 -14 15 -8 14 -14 30 -14 35 0
6 6 -1 14 -15 8 -14 14 -29 14 -35z m2394 48 c-7 -2 -21 -2 -30 0 -10 3 -4 5
12 5 17 0 24 -2 18 -5z m2937 3 c0 -2 -7 -7 -16 -10 -8 -3 -12 -2 -9 4 6 10
25 14 25 6z m-4519 -29 c-10 -9 -11 -8 -5 6 3 10 9 15 12 12 3 -3 0 -11 -7
-18z m2797 -72 c117 -34 243 -85 361 -144 73 -37 317 -99 421 -108 78 -6 160
9 160 29 0 6 -9 8 -22 4 -58 -16 -81 -18 -121 -7 -23 7 -53 21 -67 32 l-25 20
33 -16 c35 -17 98 -17 96 0 0 6 -19 20 -42 31 -23 12 -39 23 -37 26 2 2 -4 4
-13 5 -58 4 -64 8 -88 55 -13 26 -24 52 -24 57 0 14 90 10 127 -6 18 -7 92
-29 165 -49 163 -44 233 -80 304 -156 96 -104 126 -199 99 -314 -17 -72 -64
-173 -92 -194 -15 -13 -15 -11 2 8 23 28 14 36 -49 46 -22 4 -80 18 -128 32
-48 14 -92 23 -98 19 -5 -3 -10 -2 -10 3 0 15 -41 22 -62 11 -10 -6 -16 -14
-13 -20 4 -5 -4 -13 -16 -18 l-23 -8 24 -13 c14 -7 28 -17 31 -22 3 -5 25 -12
47 -15 23 -3 40 -10 39 -16 -1 -6 12 -17 28 -25 17 -9 37 -24 46 -34 10 -10
21 -18 25 -17 18 3 34 -1 34 -9 0 -14 -214 8 -385 39 -215 39 -208 37 -286 94
-40 30 -75 55 -78 55 -4 0 -19 11 -34 25 -15 14 -27 23 -27 20 0 -7 -101 45
-155 80 -35 22 -36 24 -12 19 33 -8 35 7 5 30 -13 10 -6 7 16 -5 21 -12 82
-44 135 -69 53 -26 129 -73 170 -104 42 -31 89 -59 109 -62 40 -8 147 9 168
27 28 23 12 29 -89 29 -93 0 -106 2 -139 25 -21 14 -35 31 -32 38 7 20 -93
100 -117 94 -13 -4 -46 8 -85 30 -54 29 -64 39 -64 61 0 20 -3 23 -9 12 -6 -8
-7 -18 -5 -22 9 -14 -8 -8 -53 18 -24 14 -52 38 -61 52 -9 15 -24 28 -32 28
-78 8 -168 44 -175 71 -3 12 -18 29 -33 37 -34 19 -22 19 71 2 80 -16 211 -74
397 -176 109 -60 156 -76 323 -106 68 -13 100 -15 108 -7 7 7 -1 12 -28 16
-51 9 -117 58 -118 88 0 17 -8 25 -35 32 -19 5 -39 13 -44 18 -13 12 -43 11
-51 -2 -7 -11 53 -71 77 -77 7 -2 17 -7 22 -12 17 -17 -65 8 -96 30 -18 12
-25 19 -16 16 12 -3 15 -1 11 9 -3 8 -9 13 -13 10 -5 -3 -12 0 -16 6 -4 8 -3
9 4 5 7 -4 12 -2 12 3 0 10 -34 15 -77 14 -7 -1 -13 3 -13 9 0 5 -5 6 -10 3
-6 -4 -9 -1 -8 6 2 6 -3 14 -11 17 -9 3 -11 0 -6 -9 4 -8 -7 2 -26 22 -19 19
-66 53 -106 74 -60 32 -69 40 -56 50 13 10 8 16 -33 43 -26 18 -52 32 -57 32
-5 0 -7 6 -4 14 5 13 -21 46 -36 46 -4 0 -7 -14 -7 -31 0 -35 -4 -34 -100 8
-58 25 -71 38 -63 60 8 20 32 16 161 -22z m3140 -30 c3 -61 -6 -82 -24 -53 -4
7 -3 8 4 4 15 -9 16 32 2 54 -8 12 -10 12 -10 1 0 -8 -3 -12 -6 -9 -5 5 22 68
29 68 1 0 4 -29 5 -65z m97 13 c20 -62 50 -108 71 -108 8 0 12 5 9 10 -3 6 4
10 17 10 13 0 18 -3 12 -8 -6 -4 -10 -16 -8 -27 16 -103 16 -122 -5 -161 -21
-41 -44 -70 -73 -92 -14 -12 -16 -10 -14 12 2 14 -1 23 -5 20 -5 -3 -9 2 -9
11 0 10 -5 13 -12 9 -7 -4 -2 6 10 23 28 40 37 85 22 112 -10 20 -17 22 -64
16 -30 -4 -56 -3 -59 2 -3 5 8 8 24 7 17 -1 28 0 25 4 -3 3 -1 11 5 19 6 7 8
13 5 13 -4 0 0 10 8 22 19 26 20 61 5 90 -8 15 -8 27 2 44 7 13 13 24 15 24 1
0 9 -24 19 -52z m-145 -48 c-6 -11 -13 -20 -16 -20 -2 0 0 9 6 20 6 11 13 20
16 20 2 0 0 -9 -6 -20z m-1299 -47 c13 -16 12 -17 -3 -4 -10 7 -18 15 -18 17
0 8 8 3 21 -13z m1333 -9 c3 -8 2 -12 -4 -9 -6 3 -10 10 -10 16 0 14 7 11 14
-7z m-6788 -21 c-6 -6 -36 9 -36 18 0 5 9 4 20 -3 10 -7 18 -14 16 -15z m5436
1 c17 -10 57 -69 43 -63 -13 5 -125 70 -125 72 0 6 69 -2 82 -9z m1300 -32
c-3 -22 2 -31 22 -42 14 -7 26 -17 26 -21 0 -15 -22 -22 -30 -9 -10 17 -51 9
-64 -13 -9 -14 -7 -21 6 -31 13 -10 15 -15 6 -24 -7 -7 -18 -12 -25 -12 -7 0
-13 -5 -13 -11 0 -5 4 -8 8 -5 5 3 4 -10 -2 -29 l-11 -35 -12 37 c-7 20 -18
41 -23 48 -8 9 0 31 28 79 21 36 41 64 44 61 2 -3 13 4 23 15 23 25 22 25 17
-8z m-6725 2 c-3 -3 -12 -4 -19 -1 -8 3 -5 6 6 6 11 1 17 -2 13 -5z m3468 -34
c26 -26 27 -30 10 -29 -44 2 -120 34 -123 53 -6 31 75 13 113 -24z m1971 -1
c49 -20 66 -43 127 -166 26 -50 71 -129 100 -175 59 -92 131 -218 123 -218 -2
0 -14 16 -26 36 -30 47 -37 36 -10 -16 12 -23 16 -39 10 -35 -9 5 -10 1 -6
-16 4 -13 -12 12 -34 56 -23 44 -48 90 -56 103 -8 12 -12 28 -8 34 4 6 3 8 -3
5 -6 -4 -35 26 -65 66 -76 102 -90 126 -82 140 4 7 4 9 -1 5 -9 -9 -40 30 -31
39 3 4 18 1 33 -6 23 -9 25 -9 12 1 -8 7 -26 29 -40 49 -13 19 -48 57 -78 83
-56 50 -51 52 35 15z m-4169 -21 c-3 -7 -5 -2 -5 12 0 14 2 19 5 13 2 -7 2
-19 0 -25z m-1188 -93 l96 -94 -30 -55 c-29 -54 -29 -56 -13 -84 20 -33 12
-52 -9 -22 -9 12 -36 24 -74 32 -37 7 -54 15 -43 18 15 6 15 7 0 23 -16 16
-16 17 9 17 51 0 92 41 80 79 -3 10 -32 40 -65 65 -64 50 -85 79 -76 102 10
26 29 14 125 -81z m6801 80 c0 -9 -11 -26 -25 -39 -14 -13 -25 -27 -25 -32 0
-5 -26 -32 -57 -61 l-58 -51 24 -26 c50 -54 135 -42 212 31 27 25 51 54 54 64
11 35 21 19 15 -23 -3 -24 -11 -42 -17 -41 -6 1 -16 -11 -23 -27 -14 -34 -135
-99 -201 -107 -29 -4 -45 -13 -57 -32 -9 -14 -24 -37 -35 -51 l-18 -24 5 26
c3 17 -1 28 -9 32 -9 3 -15 -4 -18 -17 -4 -21 -4 -21 -6 -1 0 11 7 29 17 40
58 66 55 59 36 99 -10 21 -22 34 -30 31 -19 -7 -22 15 -5 39 9 11 43 46 76 78
42 40 67 57 86 57 15 0 32 7 39 15 9 11 9 15 1 15 -7 0 -9 5 -6 10 9 15 25 12
25 -5z m-1839 -21 c11 -14 10 -18 -6 -31 -18 -12 -22 -12 -37 8 -10 12 -18 25
-18 30 0 15 47 10 61 -7z m196 -97 c56 -52 90 -101 141 -203 55 -110 57 -126
26 -158 -41 -41 -152 -99 -177 -92 -12 3 -57 13 -100 22 -64 14 -77 20 -71 33
4 9 22 60 41 114 44 125 49 242 15 321 -12 27 -22 50 -22 52 0 12 109 -54 147
-89z m-5309 -33 c28 -2 46 27 29 46 -7 7 3 3 21 -9 18 -12 29 -27 26 -33 -4
-7 -2 -8 5 -4 14 9 41 -11 41 -30 0 -10 -13 -14 -43 -14 -55 0 -118 42 -147
99 -31 61 -24 61 13 1 23 -40 39 -55 55 -56z m13 79 c13 -16 12 -17 -3 -4 -10
7 -18 15 -18 17 0 8 8 3 21 -13z m3262 -5 c17 -18 20 -48 5 -48 -10 0 -10 -2
0 -9 9 -5 1 -10 -25 -14 -54 -9 -391 -19 -375 -11 10 5 10 9 1 20 -10 12 -8
13 7 8 10 -4 25 -12 32 -17 9 -7 11 -6 7 5 -5 12 9 18 62 27 37 7 106 21 153
31 104 23 118 23 133 8z m1866 -30 c6 -17 4 -25 -8 -29 -18 -7 -31 7 -31 34 0
25 29 21 39 -5z m-1688 -5 c13 -16 12 -17 -3 -4 -17 13 -22 21 -14 21 2 0 10
-8 17 -17z m3207 -58 c-8 -44 -8 -62 0 -76 10 -16 9 -19 -7 -19 -11 0 -39 -23
-63 -51 -39 -45 -44 -48 -45 -27 -1 13 10 36 26 53 15 16 34 50 41 75 12 41
51 113 57 106 2 -1 -2 -29 -9 -61z m-6718 0 c19 -21 28 -34 18 -27 -26 20 -29
-8 -4 -38 12 -14 5 -11 -15 8 -27 24 -35 39 -32 56 3 13 0 27 -6 30 -6 4 -11
12 -11 19 0 6 3 7 8 2 4 -6 23 -28 42 -50z m1367 -7 c-3 -8 -6 -5 -6 6 -1 11
2 17 5 13 3 -3 4 -12 1 -19z m2127 7 c16 -9 36 -13 43 -11 7 3 13 1 13 -4 0
-6 9 -10 20 -10 10 0 27 -8 37 -18 10 -10 33 -29 51 -41 38 -27 53 -51 57 -96
3 -31 0 -35 -36 -49 -32 -13 -70 -15 -222 -10 -100 3 -220 10 -267 16 -105 13
-175 45 -178 81 -2 35 10 42 123 71 55 14 138 39 185 55 98 34 133 37 174 16z
m1724 -20 c1 -19 -3 -25 -18 -25 -15 0 -20 7 -20 25 0 17 5 25 18 25 12 0 18
-8 20 -25z m1787 15 c-3 -5 -12 -10 -18 -10 -7 0 -6 4 3 10 19 12 23 12 15 0z
m-1795 -90 c0 -23 -4 -30 -20 -30 -22 0 -23 3 -14 38 9 33 34 28 34 -8z
m-3853 -12 c-3 -8 -6 -5 -6 6 -1 11 2 17 5 13 3 -3 4 -12 1 -19z m3829 -56 c7
-4 8 -15 3 -29 -14 -39 -43 -25 -32 15 6 23 11 26 29 14z m-19 -95 c-5 -15
-19 -18 -36 -8 -8 5 -11 16 -8 25 5 14 11 15 27 6 12 -6 20 -16 17 -23z m1615
1 c3 -7 -1 -26 -8 -43 l-13 -30 -1 43 c0 40 12 57 22 30z m-1649 -40 c25 -19
6 -42 -27 -34 -23 6 -25 9 -16 26 12 23 20 25 43 8z m-3963 -129 c-6 -57 -27
-201 -46 -320 -23 -147 -35 -257 -36 -340 -1 -78 -3 -98 -5 -55 -4 60 -21 105
-35 90 -3 -2 -5 9 -6 26 0 16 4 30 10 30 6 0 8 9 5 20 -3 11 -1 35 3 53 5 17
14 64 21 102 6 39 15 75 19 80 5 6 8 21 7 35 -1 14 8 68 20 120 12 52 27 134
34 183 7 48 14 85 16 83 2 -2 -1 -51 -7 -107z m1816 81 c32 0 58 -5 67 -14 11
-11 17 -12 26 -3 8 8 11 8 11 -1 0 -7 -6 -13 -12 -14 -7 0 -17 -2 -23 -2 -5
-1 -16 -5 -24 -10 -9 -6 -12 -5 -7 2 4 7 -8 9 -39 7 -53 -4 -101 10 -109 32
-5 13 -1 14 25 9 17 -3 55 -6 85 -6z m324 -14 c0 -2 -11 -6 -25 -8 -13 -3 -22
-1 -19 3 5 9 44 13 44 5z m223 -25 l87 -6 -18 -35 c-11 -20 -28 -36 -41 -38
-12 -2 -19 -7 -16 -12 3 -5 -16 -7 -42 -4 -120 11 -309 24 -360 24 -62 0 -69
8 -11 12 23 1 34 6 31 14 -2 7 1 16 8 20 12 7 149 13 149 6 0 -2 -13 -8 -30
-13 -36 -13 -39 -26 -6 -26 23 0 35 15 50 61 6 16 13 18 59 11 28 -4 91 -10
140 -14z m-395 -31 c7 -11 8 -20 3 -20 -5 0 -12 6 -14 13 -4 9 -8 9 -15 -1 -8
-11 -10 -11 -15 1 -12 31 22 37 41 7z m1902 -25 c9 -10 6 -15 -9 -20 -24 -7
-41 1 -41 18 0 17 36 19 50 2z m-86 -11 c9 -22 8 -23 -14 -17 -21 5 -25 15
-13 26 11 11 20 8 27 -9z m233 0 c-3 -3 -12 -4 -19 -1 -8 3 -5 6 6 6 11 1 17
-2 13 -5z m-1894 -270 c-7 -3 -10 -11 -7 -19 4 -10 -6 -16 -33 -21 -37 -7
-148 -45 -225 -78 -35 -15 -37 -15 -35 4 1 22 74 54 217 97 67 20 114 29 83
17z m272 -265 c82 -9 112 -15 112 -25 0 -16 -13 -19 -20 -4 -3 6 -4 5 -3 -2 1
-7 17 -20 35 -28 l32 -16 -20 -23 c-18 -20 -20 -21 -29 -5 -9 16 -10 15 -16
-4 -7 -20 -28 -32 -25 -14 3 18 -2 32 -12 32 -5 0 -7 -6 -3 -12 4 -7 -2 -4
-14 6 -17 15 -19 22 -11 33 9 10 8 13 0 13 -7 0 -9 5 -5 13 5 8 2 7 -9 -2 -10
-8 -20 -11 -24 -7 -4 3 2 12 12 20 18 13 17 14 -8 14 -15 0 -24 -4 -22 -9 3
-4 -5 -6 -17 -4 -13 3 -24 9 -26 15 -6 16 -49 12 -49 -5 0 -8 8 -13 20 -12 11
1 22 -5 25 -13 3 -8 1 -12 -3 -7 -5 4 -19 0 -31 -8 -13 -8 -30 -12 -38 -9 -9
3 -16 1 -16 -5 0 -6 -7 -11 -15 -11 -8 0 -15 4 -15 8 0 11 -42 13 -55 2 -6 -5
-40 -11 -76 -14 -35 -2 -71 -7 -79 -10 -8 -2 -58 -7 -111 -10 -53 -3 -103 -8
-112 -12 -9 -3 -21 -2 -28 2 -20 12 20 34 63 34 22 0 69 6 106 14 37 8 96 20
132 27 36 6 71 17 78 22 33 26 124 31 277 16z m182 -25 c-3 -3 -12 -4 -19 -1
-8 3 -5 6 6 6 11 1 17 -2 13 -5z m66 -11 c-7 -2 -19 -2 -25 0 -7 3 -2 5 12 5
14 0 19 -2 13 -5z m-13 -68 c-7 -9 -15 -13 -19 -10 -3 3 1 10 9 15 21 14 24
12 10 -5z m-302 -65 c-13 -21 -48 -35 -69 -28 -13 4 47 46 69 47 10 1 10 -3 0
-19z m-89 -34 c-11 -9 -69 -15 -64 -6 3 6 20 10 37 10 17 0 29 -2 27 -4z
m-2312 -58 c-3 -7 -5 -2 -5 12 0 14 2 19 5 13 2 -7 2 -19 0 -25z m4033 -67
c-21 -6 -17 -8 24 -13 34 -4 56 -14 75 -33 l26 -27 -60 8 c-33 3 -63 13 -68
20 -13 23 -73 27 -148 10 -87 -19 -108 -21 -92 -5 18 18 152 48 213 47 39 0
48 -2 30 -7z m148 -19 c20 -30 11 -28 -17 4 -13 15 -17 24 -10 22 7 -2 19 -14
27 -26z m84 -2 c28 -9 101 -60 95 -66 -4 -4 -47 8 -99 28 -15 5 -35 22 -44 36
-16 24 -16 25 2 18 11 -5 31 -12 46 -16z m-526 -24 c-1 -22 -10 -27 -96 -50
-68 -18 -109 -23 -143 -19 -27 3 -45 9 -40 13 11 11 178 61 233 70 25 4 46 8
46 9 1 0 1 -10 0 -23z m518 -131 c39 -45 99 -116 134 -158 58 -71 61 -77 43
-86 -11 -6 -26 -11 -33 -10 -7 0 -55 48 -106 106 -78 90 -90 108 -80 122 10
13 10 14 -2 4 -11 -10 -25 0 -77 53 -34 35 -63 66 -63 68 0 1 25 -2 56 -8 54
-9 60 -13 128 -91z m-429 59 c-44 -19 -100 -37 -125 -39 -53 -4 -44 1 85 46
112 39 136 35 40 -7z m143 -11 c41 -39 45 -58 16 -72 -22 -10 -25 -8 -38 23
-35 83 -29 97 22 49z m-88 -18 c-14 -8 -29 -14 -35 -14 -5 0 1 6 15 14 14 8
30 14 35 14 6 0 -1 -6 -15 -14z m586 -3 c29 -24 44 -55 35 -70 -5 -9 -18 4
-39 38 -33 52 -31 61 4 32z m-1249 -67 c132 -65 301 -252 428 -472 22 -37 20
-41 -21 -49 -26 -5 -31 -2 -46 30 -37 77 -137 215 -212 294 -95 99 -176 162
-257 199 -32 15 -59 31 -59 36 0 20 94 -2 167 -38z m-308 -50 c-12 -39 -26
-76 -32 -83 -11 -14 -107 -66 -111 -60 -2 2 6 40 17 84 l20 82 61 24 c33 14
62 24 63 23 1 0 -7 -32 -18 -70z m1015 -107 c21 -30 20 -48 -3 -48 -11 0 -23
-4 -26 -10 -8 -12 -25 -13 -45 0 -12 8 -11 13 8 33 12 13 22 29 22 35 0 20 28
13 44 -10z m-1074 -60 c-10 -29 -29 -78 -43 -108 -14 -31 -34 -87 -46 -125
-11 -39 -34 -101 -49 -140 -27 -65 -31 -70 -62 -73 -26 -3 -31 0 -27 12 31 81
65 185 96 300 l38 138 54 23 c30 12 55 23 56 24 1 0 -6 -23 -17 -51z m-600
-168 c-12 -16 -30 -36 -40 -43 -11 -8 -17 -17 -12 -22 4 -5 1 -5 -6 0 -10 5
-3 18 29 51 51 52 58 55 29 14z m-85 -268 c-2 -2 -22 -2 -45 0 l-42 3 25 35
c13 19 29 34 35 33 7 -2 13 3 13 10 1 6 5 -8 9 -33 4 -25 6 -46 5 -48z"/>
<path d="M9160 6550 c0 -5 5 -10 10 -10 6 0 10 5 10 10 0 6 -4 10 -10 10 -5 0
-10 -4 -10 -10z"/>
<path d="M9379 5793 c0 -5 -2 -18 -5 -30 -2 -13 1 -23 6 -23 6 0 10 14 10 30
0 26 -9 44 -11 23z"/>
<path d="M9389 5718 c-6 -24 -5 -58 2 -58 5 0 9 14 9 30 0 17 -2 30 -5 30 -3
0 -5 -1 -6 -2z"/>
<path d="M8050 7662 c0 -4 12 -24 26 -43 36 -47 90 -156 104 -208 6 -24 24
-57 39 -72 26 -25 34 -28 95 -26 36 1 66 5 66 9 0 4 -11 15 -25 24 -50 33 -56
148 -9 160 61 15 8 52 -117 80 -42 10 -85 28 -116 50 -49 34 -63 40 -63 26z
m237 -122 c9 0 8 -10 -3 -37 -15 -35 -14 -69 3 -133 6 -23 5 -24 -12 -10 -21
17 -69 118 -79 166 l-7 32 43 -9 c24 -4 48 -8 55 -9z"/>
<path d="M4485 9010 c3 -5 8 -10 11 -10 2 0 4 5 4 10 0 6 -5 10 -11 10 -5 0
-7 -4 -4 -10z"/>
<path d="M4455 8950 c3 -5 11 -10 16 -10 6 0 7 5 4 10 -3 6 -11 10 -16 10 -6
0 -7 -4 -4 -10z"/>
<path d="M4553 8943 c-7 -3 -13 -9 -13 -15 0 -7 5 -6 14 1 12 10 15 4 18 -35
4 -48 -14 -71 -34 -43 -6 10 -7 7 -3 -10 6 -20 4 -23 -12 -19 -13 4 -19 0 -19
-13 0 -12 7 -19 21 -19 14 0 16 3 7 9 -10 6 -5 11 17 21 33 13 34 15 31 75 -2
44 -8 55 -27 48z"/>
<path d="M4488 8916 c-4 -17 0 -22 18 -22 16 0 20 3 14 11 -6 7 -7 14 -4 17 2
3 -2 8 -10 11 -9 4 -15 -2 -18 -17z"/>
<path d="M5635 8919 c10 -33 45 -89 55 -89 21 0 18 20 -10 58 -37 51 -55 63
-45 31z"/>
<path d="M4376 8863 c-6 -14 -5 -15 5 -6 7 7 10 15 7 18 -3 3 -9 -2 -12 -12z"/>
<path d="M4461 8877 c2 -1 12 -9 22 -16 14 -12 17 -11 17 3 0 10 -8 16 -22 16
-12 0 -19 -1 -17 -3z"/>
<path d="M4447 8849 c7 -7 15 -10 18 -7 3 3 -2 9 -12 12 -14 6 -15 5 -6 -5z"/>
<path d="M4470 8811 c0 -6 5 -13 10 -16 6 -3 10 1 10 9 0 9 -4 16 -10 16 -5 0
-10 -4 -10 -9z"/>
<path d="M4600 8801 c0 -6 5 -13 10 -16 8 -5 8 -11 1 -19 -8 -9 0 -12 29 -11
21 0 40 2 42 5 2 3 1 4 -1 3 -8 -5 -61 28 -61 37 0 6 -4 10 -10 10 -5 0 -10
-4 -10 -9z"/>
<path d="M4420 8790 c0 -5 5 -10 10 -10 6 0 10 5 10 10 0 6 -4 10 -10 10 -5 0
-10 -4 -10 -10z"/>
<path d="M4555 8790 c3 -5 8 -10 11 -10 2 0 4 5 4 10 0 6 -5 10 -11 10 -5 0
-7 -4 -4 -10z"/>
<path d="M4313 8747 c-10 -12 -11 -17 -3 -10 8 6 24 13 35 15 17 3 18 5 3 10
-10 4 -23 -1 -35 -15z"/>
<path d="M4462 8747 c-10 -11 -9 -17 2 -26 17 -14 26 -3 17 22 -6 16 -9 17
-19 4z"/>
<path d="M4410 8736 c0 -2 7 -7 16 -10 8 -3 12 -2 9 4 -6 10 -25 14 -25 6z"/>
<path d="M4536 8713 c-6 -14 -5 -15 5 -6 7 7 10 15 7 18 -3 3 -9 -2 -12 -12z"/>
<path d="M4745 8699 c-4 -6 -5 -12 -2 -15 2 -3 7 2 10 11 7 17 1 20 -8 4z"/>
<path d="M4310 8680 c0 -5 7 -7 15 -4 8 4 15 8 15 10 0 2 -7 4 -15 4 -8 0 -15
-4 -15 -10z"/>
<path d="M4377 8647 c-3 -8 -1 -20 4 -28 6 -10 9 -7 9 14 0 29 -5 35 -13 14z"/>
<path d="M4398 8593 c7 -3 16 -2 19 1 4 3 -2 6 -13 5 -11 0 -14 -3 -6 -6z"/>
<path d="M4433 8583 c-7 -3 -13 -12 -13 -21 0 -14 2 -15 9 -3 8 12 12 12 25 2
12 -10 16 -10 16 -2 0 7 5 9 12 5 6 -4 8 -3 5 3 -8 13 -38 21 -54 16z"/>
<path d="M4979 8484 c-17 -36 -28 -68 -26 -70 2 -2 17 28 34 66 17 39 29 70
27 70 -3 0 -19 -30 -35 -66z"/>
<path d="M6281 9094 c0 -11 3 -14 6 -6 3 7 2 16 -1 19 -3 4 -6 -2 -5 -13z"/>
<path d="M6340 9080 c-9 -6 -10 -10 -3 -10 6 0 15 5 18 10 8 12 4 12 -15 0z"/>
<path d="M1695 6480 c-3 -5 -1 -10 4 -10 6 0 11 5 11 10 0 6 -2 10 -4 10 -3 0
-8 -4 -11 -10z"/>
<path d="M1631 6354 c0 -11 3 -14 6 -6 3 7 2 16 -1 19 -3 4 -6 -2 -5 -13z"/>
<path d="M1680 5879 c0 -5 5 -7 10 -4 6 3 10 8 10 11 0 2 -4 4 -10 4 -5 0 -10
-5 -10 -11z"/>
<path d="M1640 4661 c0 -6 4 -13 10 -16 6 -3 7 1 4 9 -7 18 -14 21 -14 7z"/>
<path d="M1647 4343 c-11 -11 -17 -13 -17 -5 0 17 -27 15 -34 -3 -4 -11 1 -15
19 -15 14 0 25 -5 25 -11 0 -5 -4 -8 -9 -5 -5 3 -14 -1 -20 -8 -7 -8 -8 -17
-3 -20 5 -3 8 -19 7 -35 -1 -18 4 -32 12 -35 8 -3 11 -1 8 4 -3 6 1 10 9 10 9
0 16 -4 16 -10 0 -5 5 -10 11 -10 6 0 8 7 5 16 -3 8 -2 13 3 10 5 -3 14 1 21
9 10 12 9 15 -8 15 -22 0 -37 36 -20 47 7 3 8 1 4 -5 -4 -7 -2 -12 4 -12 7 0
9 8 4 23 -4 12 -8 30 -8 40 0 21 -7 22 -29 0z"/>
<path d="M1685 4191 c-3 -6 -12 -8 -20 -4 -11 4 -13 1 -9 -11 4 -11 2 -16 -6
-14 -7 2 -15 -3 -17 -9 -4 -11 15 -18 40 -14 4 0 7 -4 7 -10 0 -5 4 -8 10 -4
5 3 7 12 3 20 -3 9 0 22 6 29 8 9 8 16 2 20 -5 4 -12 2 -16 -3z"/>
<path d="M1718 4153 c7 -3 16 -2 19 1 4 3 -2 6 -13 5 -11 0 -14 -3 -6 -6z"/>
<path d="M1717 4059 c5 -20 18 -25 27 -11 2 4 -4 13 -14 19 -15 10 -17 9 -13
-8z"/>
<path d="M1730 4030 c-13 -8 -11 -13 9 -32 21 -20 22 -21 13 -3 -5 11 -7 26
-5 33 6 14 3 15 -17 2z"/>
<path d="M8673 5035 c0 -8 7 -15 15 -15 7 0 12 5 10 12 -6 18 -25 21 -25 3z"/>
<path d="M8663 4995 c-3 -9 -3 -19 1 -22 3 -4 6 1 6 10 0 8 8 18 18 20 16 4
16 5 -1 6 -10 0 -20 -6 -24 -14z"/>
<path d="M3446 8011 c-6 -10 10 -25 38 -35 15 -5 16 -9 6 -21 -7 -9 -10 -18
-7 -22 4 -3 9 2 13 11 5 13 14 15 34 11 24 -5 27 -3 27 25 0 34 -4 36 -28 14
-16 -14 -18 -14 -29 5 -11 21 -44 28 -54 12z"/>
<path d="M3435 7790 c-3 -6 1 -7 9 -4 18 7 21 14 7 14 -6 0 -13 -4 -16 -10z"/>
<path d="M2841 6941 c-22 -44 -41 -87 -41 -95 0 -9 -8 -16 -18 -16 -12 0 -29
-18 -46 -50 -15 -27 -23 -50 -19 -50 5 0 17 16 27 35 11 19 22 35 25 35 4 0
14 -21 24 -47 19 -52 43 -90 52 -81 3 3 -3 21 -13 39 -25 43 -35 86 -22 94 5
3 10 23 10 42 l0 37 28 -27 c30 -29 62 -36 62 -14 0 7 -16 21 -35 30 -19 9
-35 21 -35 27 0 16 29 70 38 70 23 -1 34 -20 28 -51 -7 -32 -6 -33 9 -15 8 11
15 25 15 32 0 9 9 10 35 3 20 -6 50 -9 68 -7 28 3 24 6 -38 26 -38 13 -80 32
-91 43 l-22 20 -41 -80z"/>
<path d="M3506 6785 c-20 -51 -52 -80 -107 -97 l-39 -11 26 -48 c29 -52 91
-120 78 -84 -11 27 -45 87 -61 106 -12 14 -11 17 7 22 12 3 20 0 20 -8 0 -12
66 -25 89 -17 24 8 9 22 -25 22 l-35 0 26 35 c28 35 60 125 46 125 -5 0 -16
-20 -25 -45z"/>
<path d="M2364 6740 c-29 -12 -53 -47 -47 -70 3 -10 15 -27 26 -37 22 -18 22
-18 5 3 -39 45 -12 83 48 68 19 -5 25 -4 20 5 -4 6 0 11 10 11 14 0 15 -3 6
-12 -7 -7 -12 -27 -12 -46 0 -30 2 -33 15 -22 13 10 17 7 30 -23 21 -50 19
-84 -10 -144 -21 -47 -28 -53 -54 -53 l-30 0 6 49 c5 41 2 52 -16 70 -30 30
-84 28 -110 -5 -16 -21 -23 -23 -40 -15 -29 16 -77 13 -95 -5 -18 -17 -22 -99
-6 -109 6 -4 -11 -21 -37 -38 -26 -18 -56 -46 -66 -64 -34 -59 -20 -129 30
-152 34 -16 55 -14 109 10 38 16 50 17 53 7 8 -24 61 -66 92 -73 51 -11 83 20
87 84 2 28 7 49 12 46 15 -9 76 21 94 46 25 36 20 74 -15 113 l-31 35 28 36
c41 54 44 121 10 180 -28 47 -27 54 7 93 l20 22 -59 -1 c-32 0 -69 -4 -80 -9z
m-26 -222 c20 -20 14 -71 -13 -102 -30 -35 -32 -51 -6 -36 28 15 77 12 111 -5
24 -13 30 -22 30 -49 0 -48 -19 -60 -90 -53 l-59 5 21 -29 c23 -31 28 -83 10
-101 -15 -15 -67 -14 -86 2 -10 8 -16 29 -16 56 0 47 -9 54 -31 27 -19 -23
-88 -53 -123 -53 -39 0 -66 26 -66 63 0 22 12 42 49 78 49 50 78 59 124 40 16
-6 13 -10 -19 -31 -36 -24 -55 -50 -37 -50 5 0 28 14 52 32 l43 31 -53 47
c-46 40 -51 49 -45 73 5 21 12 27 35 27 16 0 34 -7 41 -15 18 -22 38 -18 46 8
3 12 11 28 16 35 13 15 50 16 66 0z"/>
<path d="M2886 6721 c-4 -7 -5 -15 -2 -18 9 -9 19 4 14 18 -4 11 -6 11 -12 0z"/>
<path d="M3208 6617 c-36 -34 -116 -107 -177 -162 -61 -55 -111 -104 -111
-108 0 -19 131 84 208 163 87 89 101 93 102 27 0 -32 21 -77 44 -96 20 -17 20
-11 1 25 -16 31 -20 58 -7 52 47 -24 112 -51 135 -55 45 -9 31 12 -25 38 -130
58 -148 82 -113 149 9 17 14 30 13 30 -2 0 -33 -28 -70 -63z"/>
<path d="M2677 6584 c-3 -3 -2 -16 3 -29 5 -13 6 -26 2 -30 -4 -4 3 -3 15 4
28 14 27 50 -2 44 -16 -4 -17 -3 -5 6 8 6 10 11 4 11 -6 0 -13 -3 -17 -6z"/>
<path d="M3087 6395 c-18 -69 -16 -85 10 -85 12 0 14 7 10 30 -12 57 15 77 61
44 12 -8 28 -14 35 -11 6 2 -9 17 -35 33 -27 16 -48 35 -48 41 0 34 -18 6 -33
-52z"/>
<path d="M2476 6144 c-8 -21 -8 -74 0 -74 4 0 12 7 18 16 9 12 33 16 103 17
72 2 89 5 81 15 -6 6 -29 12 -52 12 -22 1 -52 7 -66 15 -34 19 -76 19 -84 -1z"/>
<path d="M2852 5908 c5 -16 82 -55 126 -64 55 -11 37 15 -33 47 -69 31 -99 37
-93 17z"/>
<path d="M2760 5823 c0 -18 43 -92 51 -87 16 9 10 60 -9 77 -19 17 -42 23 -42
10z"/>
<path d="M2845 5667 c-13 -10 -16 -21 -11 -40 3 -15 10 -27 14 -27 8 0 42 57
42 71 0 13 -23 11 -45 -4z"/>
<path d="M2790 5661 c0 -6 5 -13 10 -16 6 -3 10 1 10 9 0 9 -4 16 -10 16 -5 0
-10 -4 -10 -9z"/>
<path d="M2276 5574 c-9 -22 -8 -24 9 -24 8 0 15 6 15 14 0 22 -17 28 -24 10z"/>
<path d="M2330 5521 c0 -18 89 -28 124 -15 36 14 12 24 -54 24 -38 0 -70 -4
-70 -9z"/>
<path d="M2685 5374 c12 -13 19 -14 28 -5 6 6 9 11 7 12 -3 0 -15 2 -28 5 -22
4 -22 3 -7 -12z"/>
<path d="M2544 5325 c4 -16 2 -33 -5 -41 -10 -12 -9 -18 0 -27 10 -9 18 -6 37
17 23 25 24 30 11 50 -8 11 -22 23 -32 24 -15 3 -16 -1 -11 -23z"/>
<path d="M2133 5333 c-23 -9 -15 -43 10 -43 25 0 67 26 67 41 0 9 -55 11 -77
2z"/>
<path d="M2060 5311 c0 -5 4 -13 10 -16 5 -3 14 -20 19 -38 7 -28 10 -29 16
-13 5 12 3 29 -6 44 -15 27 -39 41 -39 23z"/>
<path d="M2712 5168 c-11 -44 -6 -98 8 -98 9 0 30 87 30 120 0 37 -27 21 -38
-22z"/>
<path d="M2453 5065 c-10 -33 -2 -57 12 -35 9 15 25 12 25 -5 0 -21 6 -19 51
13 51 36 51 56 2 50 -21 -3 -47 -9 -57 -13 -13 -6 -17 -5 -12 3 3 6 2 13 -2
16 -5 3 -14 -10 -19 -29z"/>
<path d="M2576 4947 c-31 -14 -45 -47 -19 -47 19 0 93 41 93 52 0 12 -41 9
-74 -5z"/>
<path d="M6869 7535 c-1 -3 -2 -8 -3 -12 -1 -5 -5 -14 -10 -22 -7 -11 -4 -13
15 -8 13 4 27 7 32 7 14 0 7 28 -9 34 -19 7 -24 7 -25 1z"/>
<path d="M6984 7435 c-16 -24 -13 -55 5 -55 5 0 11 9 14 19 3 15 11 18 27 14
20 -5 21 -4 11 14 -17 32 -39 35 -57 8z"/>
<path d="M7097 7334 c-4 -4 -2 -13 3 -20 8 -9 6 -12 -7 -10 -24 1 -24 -33 0
-48 15 -9 21 -6 37 14 25 31 22 64 -5 68 -12 2 -24 0 -28 -4z"/>
<path d="M7185 7221 c-3 -5 -2 -12 3 -15 5 -3 9 1 9 9 0 17 -3 19 -12 6z"/>
<path d="M7254 7125 c-19 -28 -11 -61 16 -70 29 -9 53 9 56 41 6 54 -42 74
-72 29z"/>
<path d="M7393 7002 c-5 -4 -15 -17 -22 -29 -10 -19 -9 -23 4 -23 8 0 14 -6
13 -12 -5 -21 44 -22 59 -2 17 24 16 34 -3 34 -8 0 -13 4 -9 9 7 13 -28 32
-42 23z"/>
<path d="M7498 6886 c-19 -14 -40 -61 -31 -70 3 -3 17 -3 29 0 15 4 24 2 24
-5 0 -21 20 -11 34 18 14 26 14 30 -8 50 -26 24 -26 24 -48 7z"/>
<path d="M6597 6843 c-11 -10 -8 -23 4 -23 7 0 18 -8 25 -17 12 -16 13 -16 14
-2 0 19 -34 52 -43 42z"/>
<path d="M3215 7650 c-129 -15 -194 -87 -203 -226 -6 -90 15 -157 67 -215 37
-42 40 -43 109 -47 l72 -4 -15 37 c-18 42 -13 70 16 86 19 10 19 12 5 34 -20
30 -21 95 -2 120 17 23 73 16 118 -16 17 -13 29 -18 25 -12 -10 15 9 63 36 92
22 23 22 24 1 13 -12 -6 -27 -26 -34 -44 -8 -18 -15 -34 -16 -36 -1 -2 -16 4
-33 12 -40 21 -84 20 -104 -2 -19 -21 -23 -92 -7 -122 8 -15 6 -24 -11 -41
-21 -21 -22 -45 -3 -93 7 -17 4 -19 -34 -12 -81 12 -111 35 -145 106 -68 145
-20 301 108 350 41 15 175 16 185 1 6 -11 12 -10 31 0 23 13 23 14 -21 20 -53
9 -65 9 -145 -1z"/>
<path d="M3407 7623 c-2 -5 -7 -20 -10 -34 -4 -16 -19 -33 -39 -42 -18 -9 -26
-17 -17 -17 15 0 76 38 129 80 l25 20 -42 0 c-23 0 -44 -3 -46 -7z"/>
<path d="M3475 7449 c-46 -63 -47 -71 -8 -102 13 -10 30 -32 39 -49 8 -16 18
-28 20 -25 10 9 -25 65 -53 85 -25 18 -26 22 -14 48 7 15 26 45 42 66 17 21
28 38 25 38 -3 0 -26 -27 -51 -61z"/>
<path d="M3368 7354 c-35 -18 -64 -72 -49 -87 8 -8 11 -4 11 14 0 28 31 62 70
78 14 5 18 10 10 10 -8 0 -27 -6 -42 -15z"/>
<path d="M3179 7333 c-13 -15 -12 -15 9 -4 23 12 28 21 13 21 -5 0 -15 -7 -22
-17z"/>
<path d="M3390 7225 c-1 -38 67 -47 96 -12 19 22 19 22 -2 5 -11 -10 -32 -18
-47 -18 -14 0 -31 8 -36 18 -6 9 -11 12 -11 7z"/>
<path d="M1335 6589 c-4 -6 -5 -12 -2 -15 2 -3 7 2 10 11 7 17 1 20 -8 4z"/>
<path d="M6702 6100 c0 -14 2 -19 5 -12 2 6 2 18 0 25 -3 6 -5 1 -5 -13z"/>
<path d="M8220 6267 c0 -13 39 -41 47 -34 2 3 0 15 -7 26 -12 23 -40 29 -40 8z"/>
<path d="M8315 5941 c-3 -5 -1 -12 5 -16 5 -3 10 1 10 9 0 18 -6 21 -15 7z"/>
<path d="M8280 5829 c0 -5 5 -7 10 -4 6 3 10 8 10 11 0 2 -4 4 -10 4 -5 0 -10
-5 -10 -11z"/>
<path d="M8268 5793 c-6 -29 3 -63 18 -63 7 0 16 -5 20 -12 4 -7 3 -8 -4 -4
-7 4 -12 2 -12 -3 0 -17 18 -13 28 7 10 18 8 33 -10 70 -13 26 -35 29 -40 5z"/>
<path d="M8367 5480 c3 -11 7 -20 9 -20 2 0 4 9 4 20 0 11 -4 20 -9 20 -5 0
-7 -9 -4 -20z"/>
<path d="M5943 5215 c1 -21 4 -30 9 -22 11 17 10 57 -1 57 -5 0 -9 -16 -8 -35z"/>
<path d="M5960 5091 c0 -5 5 -13 10 -16 6 -3 10 -2 10 4 0 5 -4 13 -10 16 -5
3 -10 2 -10 -4z"/>
<path d="M8850 4770 c0 -5 5 -10 10 -10 6 0 10 5 10 10 0 6 -4 10 -10 10 -5 0
-10 -4 -10 -10z"/>
<path d="M8850 4709 c0 -5 5 -7 10 -4 6 3 10 8 10 11 0 2 -4 4 -10 4 -5 0 -10
-5 -10 -11z"/>
<path d="M9206 4824 c-8 -20 -8 -24 2 -24 4 0 8 9 9 20 2 24 -3 26 -11 4z"/>
<path d="M8295 4883 c-11 -3 -24 -8 -28 -12 -10 -10 25 -7 41 3 6 4 17 4 22 1
6 -3 10 -1 10 4 0 11 -11 12 -45 4z"/>
<path d="M8350 4880 c0 -5 7 -10 16 -10 8 0 12 5 9 10 -3 6 -10 10 -16 10 -5
0 -9 -4 -9 -10z"/>
<path d="M8258 4793 c7 -3 16 -2 19 1 4 3 -2 6 -13 5 -11 0 -14 -3 -6 -6z"/>
<path d="M7844 4748 c-4 -6 -3 -8 4 -4 5 3 12 1 14 -6 3 -8 6 -9 11 -1 4 6 0
13 -8 17 -8 3 -17 0 -21 -6z"/>
<path d="M7885 4729 c-4 -6 -13 -8 -21 -5 -7 3 -16 1 -19 -4 -9 -15 27 -11 55
5 18 10 20 14 8 15 -9 0 -20 -5 -23 -11z"/>
<path d="M7760 4670 c-8 -5 -12 -12 -9 -15 4 -3 12 1 19 10 14 17 11 19 -10 5z"/>
<path d="M7755 4579 c-4 -5 -10 -7 -15 -4 -4 3 -13 -2 -19 -9 -17 -20 5 -32
26 -14 10 8 14 8 10 1 -5 -8 2 -11 23 -11 30 1 44 18 14 18 -12 0 -14 3 -6 13
8 10 6 13 -8 14 -11 1 -22 -3 -25 -8z"/>
<path d="M1240 4314 c0 -8 5 -12 10 -9 6 3 10 10 10 16 0 5 -4 9 -10 9 -5 0
-10 -7 -10 -16z"/>
<path d="M4389 3633 c-13 -15 -12 -15 9 -4 23 12 28 21 13 21 -5 0 -15 -7 -22
-17z"/>
<path d="M4268 3567 c-16 -6 -28 -14 -28 -18 0 -4 -10 -5 -22 -3 -21 4 -21 4
-3 -4 13 -6 29 -3 52 11 18 10 33 21 33 23 0 2 -1 4 -2 3 -2 -1 -15 -6 -30
-12z"/>
<path d="M2350 3819 c0 -5 5 -7 10 -4 6 3 10 8 10 11 0 2 -4 4 -10 4 -5 0 -10
-5 -10 -11z"/>
<path d="M3533 3339 c-27 -8 -31 -13 -27 -34 3 -17 0 -25 -10 -25 -7 0 -19 -7
-26 -15 -10 -12 -10 -15 3 -15 9 0 21 -8 26 -17 6 -10 11 -12 11 -5 0 6 8 12
18 12 23 0 57 76 38 84 -7 3 -6 8 4 15 18 13 7 13 -37 0z"/>
<path d="M3468 3313 c7 -3 16 -2 19 1 4 3 -2 6 -13 5 -11 0 -14 -3 -6 -6z"/>
<path d="M3378 3293 c7 -3 16 -2 19 1 4 3 -2 6 -13 5 -11 0 -14 -3 -6 -6z"/>
<path d="M2798 3573 c-26 -30 -37 -59 -42 -107 -3 -25 -10 -55 -16 -67 -7 -11
-10 -23 -7 -25 5 -5 73 153 83 192 7 29 2 30 -18 7z"/>
<path d="M5221 3176 c7 -15 15 -23 17 -16 3 7 -3 19 -13 28 -15 16 -16 15 -4
-12z"/>
<path d="M5582 3018 c-20 -20 -14 -40 11 -36 14 2 22 10 22 22 0 24 -16 31
-33 14z"/>
<path d="M5670 2930 c0 -5 5 -10 11 -10 5 0 7 5 4 10 -3 6 -8 10 -11 10 -2 0
-4 -4 -4 -10z"/>
<path d="M6309 2597 c5 -5 26 -7 47 -5 l39 3 -47 5 c-26 3 -43 1 -39 -3z"/>
<path d="M1650 3145 c0 -8 4 -15 8 -15 5 0 9 7 9 15 0 8 -4 15 -9 15 -4 0 -8
-7 -8 -15z"/>
<path d="M4691 2859 c-13 -39 -15 -77 -2 -63 9 9 24 94 17 94 -2 0 -9 -14 -15
-31z"/>
<path d="M4930 2600 c0 -5 7 -7 15 -4 8 4 15 8 15 10 0 2 -7 4 -15 4 -8 0 -15
-4 -15 -10z"/>
</g>
</svg>
